<svg version="1.1" id="Layer_1" xmlns="http://www.w3.org/2000/svg" xmlns:xlink="http://www.w3.org/1999/xlink" x="0px" y="0px"
	 width="100%" viewBox="0 0 500 500" enable-background="new 0 0 500 500" xml:space="preserve">
<path fill="#FFFFFF" opacity="1.000000" stroke="none" 
	d="
M276.000000,501.000000 
	C184.000015,501.000000 92.500046,501.000000 1.000049,501.000000 
	C1.000033,334.333405 1.000033,167.666794 1.000016,1.000139 
	C167.666565,1.000092 334.333130,1.000092 500.999756,1.000046 
	C500.999847,167.666519 500.999847,334.333038 500.999939,500.999786 
	C426.166656,501.000000 351.333344,501.000000 276.000000,501.000000 
M424.846344,422.947113 
	C424.846344,422.947113 425.060120,422.635895 425.641541,422.538055 
	C426.276611,422.079346 426.911713,421.620636 428.194641,421.061096 
	C437.625427,414.432037 441.722473,405.416901 441.709717,393.840851 
	C441.636017,326.910828 441.838318,259.980560 441.899017,193.050323 
	C441.920166,169.741791 441.804047,146.433105 442.010345,122.470604 
	C441.837433,121.582054 441.664551,120.693504 441.397583,119.381119 
	C441.397583,119.381119 441.123871,119.044144 441.294556,118.290756 
	C441.205048,117.529243 441.115570,116.767723 441.296997,115.337265 
	C441.320404,114.618301 441.343781,113.899330 441.751495,112.462654 
	C441.524506,109.164711 441.152344,105.869286 441.095245,102.568413 
	C440.825745,86.992210 424.630524,75.940170 412.586334,75.955734 
	C305.788391,76.093735 198.990128,76.020523 92.191986,76.069069 
	C88.893990,76.070572 85.508163,76.352753 82.313828,77.125984 
	C69.056000,80.335205 59.578209,93.253021 61.308846,105.833580 
	C61.272900,106.223595 61.236958,106.613617 60.603996,107.439522 
	C60.617817,109.337982 60.631638,111.236443 60.637947,113.907295 
	C60.724983,114.925430 60.812019,115.943573 60.689663,117.662880 
	C60.631077,118.391350 60.572491,119.119812 60.174076,120.220543 
	C60.215054,120.539375 60.256035,120.858200 60.262619,122.090454 
	C60.424500,215.045090 60.586376,307.999725 60.408756,401.308289 
	C60.609570,401.853149 60.810379,402.398041 61.178680,403.651184 
	C63.310966,407.179138 65.443253,410.707092 67.468414,414.835999 
	C70.213806,417.270081 72.959206,419.704193 75.589973,422.198517 
	C75.589973,422.198517 75.631744,422.073090 76.507401,422.628265 
	C76.837502,422.730621 77.167595,422.832977 77.912415,423.432251 
	C81.054550,424.137390 84.196686,424.842529 87.838371,425.618408 
	C88.174126,425.611542 88.509880,425.604675 89.474968,425.873962 
	C89.687584,425.788666 89.900200,425.703339 91.031181,425.715302 
	C93.694786,425.762634 96.358391,425.851227 99.021996,425.851410 
	C200.115845,425.858490 301.209686,425.860870 402.303528,425.844330 
	C406.131104,425.843719 409.958649,425.649750 414.547272,425.869293 
	C417.010437,425.238861 419.473633,424.608429 422.862030,423.871948 
	C423.421722,423.604675 423.981445,423.337433 424.416992,423.028717 
	C424.416992,423.028717 424.485077,423.056793 424.846344,422.947113 
z"/>
<path fill="#040607" opacity="1.000000" stroke="none" 
	d="
M88.845634,425.597809 
	C88.509880,425.604675 88.174126,425.611542 87.498642,425.247284 
	C84.840187,423.806824 82.521461,422.737457 80.066727,421.513855 
	C79.704185,421.198608 79.455376,421.087433 79.084366,420.763702 
	C78.665047,420.328613 78.345657,420.155975 77.820129,419.721191 
	C74.189140,415.089020 70.764290,410.718903 67.381470,406.276123 
	C67.423500,406.203430 67.373314,406.043152 67.367928,405.600037 
	C66.923325,401.202972 66.104424,397.249359 66.100876,393.295044 
	C66.027443,311.336792 66.125793,229.378250 65.947151,147.420288 
	C65.924843,137.190308 66.954567,127.559845 73.022278,119.009537 
	C72.998917,119.000229 73.021881,119.044983 73.296539,118.925446 
	C73.833649,118.301559 74.096100,117.797226 74.289505,117.261368 
	C74.220467,117.229836 74.295784,117.361633 74.599152,117.340302 
	C75.308029,116.887718 75.713539,116.456467 76.326736,115.960747 
	C76.809044,115.754677 76.988113,115.535133 77.416542,115.139694 
	C83.787437,110.714401 90.499313,108.990601 97.917847,108.995506 
	C199.122040,109.062447 300.326294,109.041588 401.530548,109.033249 
	C404.023804,109.033043 406.517090,108.928474 409.389709,108.971863 
	C415.167297,111.404129 420.565582,113.737114 425.977661,116.036552 
	C425.991455,116.002998 425.929230,116.040321 426.065491,116.349152 
	C433.366638,123.359489 435.982422,131.859344 435.983124,141.394196 
	C435.989105,224.288818 436.060730,307.183594 435.872925,390.077759 
	C435.858582,396.418610 434.011688,402.755310 432.777954,409.302063 
	C432.240967,410.298737 431.942688,411.087280 431.430054,412.041931 
	C431.114563,412.357880 431.013458,412.507721 430.820740,412.583984 
	C430.729095,412.510376 430.788422,412.821899 430.536407,413.111725 
	C430.181458,413.635986 430.078491,413.870422 429.769379,414.179138 
	C429.302429,414.451050 429.200287,414.711060 429.173218,415.048096 
	C429.089600,415.062683 429.085693,415.232391 428.821350,415.285370 
	C428.177551,415.930145 427.798096,416.521942 427.291870,417.151489 
	C427.165070,417.189240 427.035339,417.419800 426.871460,417.427460 
	C426.469879,417.568237 426.414368,417.755463 426.238586,418.132812 
	C425.283203,418.863800 424.630280,419.458862 423.727295,420.095154 
	C423.271210,420.393951 423.065155,420.651550 422.626709,420.967377 
	C422.394287,421.025604 422.011627,421.313965 421.677460,421.365631 
	C418.824280,422.793488 416.305237,424.169678 413.786224,425.545868 
	C409.958649,425.649750 406.131104,425.843719 402.303528,425.844330 
	C301.209686,425.860870 200.115845,425.858490 99.021996,425.851410 
	C96.358391,425.851227 93.694786,425.762634 90.470032,425.477936 
	C89.554459,425.359650 89.200050,425.478729 88.845634,425.597809 
M425.993317,247.500000 
	C425.993591,211.503754 426.017487,175.507477 425.980774,139.511276 
	C425.968658,127.637016 417.661499,118.869835 406.282196,118.865265 
	C303.625458,118.823990 200.968719,118.809769 98.312019,118.852661 
	C83.373703,118.858902 76.009949,126.469055 76.008453,141.410385 
	C76.000069,225.402206 76.158440,309.394684 75.817734,393.385132 
	C75.763947,406.645111 85.152016,416.151978 98.941040,416.120117 
	C200.264008,415.886047 301.587799,416.001465 402.911316,415.997131 
	C418.288727,415.996460 425.991638,408.298889 425.992554,392.986023 
	C425.995361,344.824005 425.993439,296.662018 425.993317,247.500000 
M370.500000,116.996948 
	C383.561981,116.996948 396.623993,116.996948 409.685974,116.996948 
	C409.681427,116.760910 409.676910,116.524872 409.672363,116.288834 
	C305.823578,116.288834 201.974792,116.288834 98.125999,116.288834 
	C98.125969,116.524872 98.125938,116.760910 98.125900,116.996948 
	C188.583939,116.996948 279.041962,116.996948 370.500000,116.996948 
z"/>
<path fill="#0297B1" opacity="1.000000" stroke="none" 
	d="
M67.373314,406.043152 
	C67.373314,406.043152 67.423500,406.203430 67.296898,406.685181 
	C67.715469,408.997009 68.357285,410.807587 68.732750,412.671814 
	C68.818573,413.097931 67.985641,413.709076 67.575539,414.235046 
	C65.443253,410.707092 63.310966,407.179138 61.157928,402.956970 
	C61.007534,401.826630 60.877895,401.390503 60.748257,400.954346 
	C60.586376,307.999725 60.424500,215.045090 60.475647,121.456383 
	C60.710854,120.706635 60.772575,120.581215 60.746975,120.477310 
	C60.693821,120.261589 60.594341,120.057281 60.513901,119.848282 
	C60.572491,119.119812 60.631077,118.391350 61.118240,117.173897 
	C61.969257,116.186317 62.498543,115.744545 62.798374,115.180756 
	C68.887527,103.730743 77.839394,97.845665 91.369270,97.873489 
	C198.598282,98.094070 305.827972,98.029953 413.057343,97.928810 
	C421.709259,97.920647 428.422333,101.320671 434.001556,107.510880 
	C436.459351,110.237831 438.691467,113.168205 441.026062,116.006210 
	C441.115570,116.767723 441.205048,117.529243 440.883606,118.929642 
	C440.321869,121.539619 440.039764,123.510666 440.039215,125.481804 
	C440.013947,215.413620 440.050812,305.345490 439.883667,395.277008 
	C439.876404,399.196259 438.023407,403.112061 437.015350,407.015015 
	C437.000458,407.000519 436.970520,406.971741 436.933899,406.606140 
	C437.258301,391.146362 437.962250,376.051239 437.922363,360.958130 
	C437.723389,285.665955 437.422699,210.373520 436.788055,135.084290 
	C436.746674,130.173843 433.986023,125.110497 431.746826,120.477608 
	C430.800079,118.518829 427.926819,117.491188 425.929230,116.040321 
	C425.929230,116.040321 425.991455,116.002998 425.961975,115.676239 
	C421.821930,109.357124 415.895020,107.575630 408.528992,108.035385 
	C304.415558,108.022606 200.770523,108.019081 97.125473,108.015808 
	C94.792633,108.015732 92.303505,107.491341 90.158730,108.127167 
	C85.352402,109.552055 79.429993,109.226082 77.071625,115.237648 
	C76.988113,115.535133 76.809044,115.754677 75.992752,115.962799 
	C75.065994,116.473419 74.680885,116.917526 74.295784,117.361633 
	C74.295784,117.361633 74.220467,117.229836 73.962250,117.286453 
	C73.476646,117.910370 73.249268,118.477676 73.021881,119.044983 
	C73.021881,119.044983 72.998917,119.000229 72.664383,119.028732 
	C66.172890,123.163445 65.137825,129.857224 65.123238,136.155350 
	C64.920486,223.706207 64.966057,311.257721 65.084641,398.808899 
	C65.087906,401.221344 66.577049,403.631775 67.373314,406.043152 
z"/>
<path fill="#84E4EA" opacity="1.000000" stroke="none" 
	d="
M61.423370,105.257927 
	C59.578209,93.253021 69.056000,80.335205 82.313828,77.125984 
	C85.508163,76.352753 88.893990,76.070572 92.191986,76.069069 
	C198.990128,76.020523 305.788391,76.093735 412.586334,75.955734 
	C424.630524,75.940170 440.825745,86.992210 441.095245,102.568413 
	C441.152344,105.869286 441.524506,109.164711 441.385559,112.440819 
	C438.881531,98.014946 426.605957,87.107674 412.161896,87.051720 
	C388.171204,86.958778 364.179901,87.012207 340.188873,87.012901 
	C257.553040,87.015312 174.917175,87.044243 92.281357,86.995956 
	C82.608009,86.990311 74.308464,89.798820 67.963142,97.379784 
	C65.772575,99.996933 63.602695,102.631378 61.423370,105.257927 
z"/>
<path fill="#0FC0DD" opacity="1.000000" stroke="none" 
	d="
M61.366108,105.545753 
	C63.602695,102.631378 65.772575,99.996933 67.963142,97.379784 
	C74.308464,89.798820 82.608009,86.990311 92.281357,86.995956 
	C174.917175,87.044243 257.553040,87.015312 340.188873,87.012901 
	C364.179901,87.012207 388.171204,86.958778 412.161896,87.051720 
	C426.605957,87.107674 438.881531,98.014946 441.193420,112.799675 
	C441.343781,113.899330 441.320404,114.618301 441.161530,115.671738 
	C438.691467,113.168205 436.459351,110.237831 434.001556,107.510880 
	C428.422333,101.320671 421.709259,97.920647 413.057343,97.928810 
	C305.827972,98.029953 198.598282,98.094070 91.369270,97.873489 
	C77.839394,97.845665 68.887527,103.730743 62.798374,115.180756 
	C62.498543,115.744545 61.969257,116.186317 61.222939,116.823311 
	C60.812019,115.943573 60.724983,114.925430 60.805908,113.175919 
	C61.049587,110.630905 61.125301,108.817268 61.201012,107.003632 
	C61.236958,106.613617 61.272900,106.223595 61.366108,105.545753 
z"/>
<path fill="#2594A7" opacity="1.000000" stroke="none" 
	d="
M437.030212,407.029480 
	C438.023407,403.112061 439.876404,399.196259 439.883667,395.277008 
	C440.050812,305.345490 440.013947,215.413620 440.039215,125.481804 
	C440.039764,123.510666 440.321869,121.539619 440.798248,119.306335 
	C441.123871,119.044144 441.397583,119.381119 441.300110,119.919441 
	C441.385345,121.346672 441.567993,122.235580 441.750641,123.124489 
	C441.804047,146.433105 441.920166,169.741791 441.899017,193.050323 
	C441.838318,259.980560 441.636017,326.910828 441.709717,393.840851 
	C441.722473,405.416901 437.625427,414.432037 427.564392,421.133545 
	C426.309448,421.682648 425.684784,422.159271 425.060120,422.635925 
	C425.060120,422.635895 424.846344,422.947113 424.682129,423.008331 
	C424.517914,423.069550 424.541138,423.070160 424.541138,423.070160 
	C423.981445,423.337433 423.421722,423.604675 422.421814,423.591125 
	C421.991577,422.644867 422.001617,421.979431 422.011627,421.313965 
	C422.011627,421.313965 422.394287,421.025604 422.873108,420.917267 
	C423.560394,420.557251 423.768860,420.305573 423.977356,420.053894 
	C424.630280,419.458862 425.283203,418.863800 426.331665,418.048981 
	C426.851898,417.709259 426.954620,417.572815 427.035339,417.419800 
	C427.035339,417.419800 427.165070,417.189240 427.553345,417.072876 
	C428.322968,416.381836 428.704315,415.807098 429.085693,415.232391 
	C429.085693,415.232391 429.089600,415.062683 429.340973,414.935120 
	C429.801361,414.617676 429.929108,414.383453 429.975555,414.104858 
	C430.078491,413.870422 430.181458,413.635986 430.556519,413.086761 
	C430.828644,412.771973 430.912384,412.657593 430.912384,412.657593 
	C431.013458,412.507721 431.114563,412.357880 431.757294,411.928711 
	C432.538147,410.797577 432.777405,409.945740 433.016632,409.093933 
	C434.011688,402.755310 435.858582,396.418610 435.872925,390.077759 
	C436.060730,307.183594 435.989105,224.288818 435.983124,141.394196 
	C435.982422,131.859344 433.366638,123.359489 426.065491,116.349152 
	C427.926819,117.491188 430.800079,118.518829 431.746826,120.477608 
	C433.986023,125.110497 436.746674,130.173843 436.788055,135.084290 
	C437.422699,210.373520 437.723389,285.665955 437.922363,360.958130 
	C437.962250,376.051239 437.258301,391.146362 436.598694,406.661499 
	C435.485931,408.351471 434.671783,409.620453 433.857666,410.889465 
	C434.364594,411.128784 434.871490,411.368134 435.378387,411.607452 
	C435.928986,410.081451 436.479614,408.555450 437.030212,407.029480 
z"/>
<path fill="#238897" opacity="1.000000" stroke="none" 
	d="
M67.521980,414.535522 
	C67.985641,413.709076 68.818573,413.097931 68.732750,412.671814 
	C68.357285,410.807587 67.715469,408.997009 67.254868,406.757874 
	C70.764290,410.718903 74.189140,415.089020 77.941681,419.962830 
	C78.574341,420.653076 78.879318,420.839600 79.184296,421.026123 
	C79.455376,421.087433 79.704185,421.198608 79.892670,421.799377 
	C79.068977,422.471161 78.283340,422.703247 77.497696,422.935303 
	C77.167595,422.832977 76.837502,422.730621 76.082664,422.365356 
	C75.657928,422.102417 75.704597,422.138275 75.704597,422.138275 
	C72.959206,419.704193 70.213806,417.270081 67.521980,414.535522 
z"/>
<path fill="#34828F" opacity="1.000000" stroke="none" 
	d="
M77.705055,423.183777 
	C78.283340,422.703247 79.068977,422.471161 80.028679,421.953613 
	C82.521461,422.737457 84.840187,423.806824 87.248871,425.211914 
	C84.196686,424.842529 81.054550,424.137390 77.705055,423.183777 
z"/>
<path fill="#34828F" opacity="1.000000" stroke="none" 
	d="
M421.677460,421.365631 
	C422.001617,421.979431 421.991577,422.644867 421.959167,423.644165 
	C419.473633,424.608429 417.010437,425.238861 414.166748,425.707581 
	C416.305237,424.169678 418.824280,422.793488 421.677460,421.365631 
z"/>
<path fill="#84E4EA" opacity="1.000000" stroke="none" 
	d="
M60.902504,107.221573 
	C61.125301,108.817268 61.049587,110.630905 60.809666,112.789719 
	C60.631638,111.236443 60.617817,109.337982 60.902504,107.221573 
z"/>
<path fill="#84E4EA" opacity="1.000000" stroke="none" 
	d="
M441.880493,122.797546 
	C441.567993,122.235580 441.385345,121.346672 441.347168,120.131355 
	C441.664551,120.693504 441.837433,121.582054 441.880493,122.797546 
z"/>
<path fill="#34828F" opacity="1.000000" stroke="none" 
	d="
M425.350830,422.586975 
	C425.684784,422.159271 426.309448,421.682648 427.240479,421.183990 
	C426.911713,421.620636 426.276611,422.079346 425.350830,422.586975 
z"/>
<path fill="#84E4EA" opacity="1.000000" stroke="none" 
	d="
M60.578506,401.131317 
	C60.877895,401.390503 61.007534,401.826630 61.074181,402.602844 
	C60.810379,402.398041 60.609570,401.853149 60.578506,401.131317 
z"/>
<path fill="#34828F" opacity="1.000000" stroke="none" 
	d="
M75.647285,422.168396 
	C75.704597,422.138275 75.657928,422.102417 75.644836,422.087769 
	C75.631744,422.073090 75.589973,422.198517 75.647285,422.168396 
z"/>
<path fill="#34828F" opacity="1.000000" stroke="none" 
	d="
M89.160301,425.735901 
	C89.200050,425.478729 89.554459,425.359650 90.010841,425.429321 
	C89.900200,425.703339 89.687584,425.788666 89.160301,425.735901 
z"/>
<path fill="#34828F" opacity="1.000000" stroke="none" 
	d="
M424.479065,423.049438 
	C424.541138,423.070160 424.517914,423.069550 424.501495,423.063171 
	C424.485077,423.056793 424.416992,423.028717 424.479065,423.049438 
z"/>
<path fill="#84E4EA" opacity="1.000000" stroke="none" 
	d="
M60.343990,120.034409 
	C60.594341,120.057281 60.693821,120.261589 60.746975,120.477310 
	C60.772575,120.581215 60.710854,120.706635 60.492844,120.999672 
	C60.256035,120.858200 60.215054,120.539375 60.343990,120.034409 
z"/>
<path fill="#FDFEFE" opacity="1.000000" stroke="none" 
	d="
M425.993317,248.000000 
	C425.993439,296.662018 425.995361,344.824005 425.992554,392.986023 
	C425.991638,408.298889 418.288727,415.996460 402.911316,415.997131 
	C301.587799,416.001465 200.264008,415.886047 98.941040,416.120117 
	C85.152016,416.151978 75.763947,406.645111 75.817734,393.385132 
	C76.158440,309.394684 76.000069,225.402206 76.008453,141.410385 
	C76.009949,126.469055 83.373703,118.858902 98.312019,118.852661 
	C200.968719,118.809769 303.625458,118.823990 406.282196,118.865265 
	C417.661499,118.869835 425.968658,127.637016 425.980774,139.511276 
	C426.017487,175.507477 425.993591,211.503754 425.993317,248.000000 
M311.078278,161.465958 
	C311.317627,161.933899 311.556976,162.401840 311.232330,163.524979 
	C311.097748,164.833389 310.846893,166.141693 310.845764,167.450226 
	C310.824158,192.425461 310.831879,217.400726 310.833527,242.375977 
	C310.833618,244.146317 310.833527,245.916641 310.833527,247.763428 
	C316.624115,247.763428 321.875488,247.763428 327.644196,247.763428 
	C327.644196,235.139984 327.644196,222.746948 327.644196,210.248688 
	C330.567230,210.248688 332.964478,210.248688 335.860962,210.248688 
	C335.860962,222.901993 335.860962,235.285736 335.860962,247.826584 
	C341.642822,247.826584 346.918884,247.826584 352.344666,247.826584 
	C352.344666,219.564468 352.344666,191.479614 352.584320,163.039734 
	C352.584320,163.039734 352.435974,162.639297 352.651031,161.805573 
	C352.228943,161.140945 351.806854,160.476303 351.424408,159.134872 
	C346.511444,158.761185 341.598480,158.387482 336.431274,157.994446 
	C336.143097,160.614822 335.956451,162.311813 335.712585,164.943420 
	C335.670013,173.127365 335.627411,181.311295 334.605988,189.411865 
	C332.339264,189.262863 330.072540,189.113846 327.685699,188.038498 
	C327.701721,180.128769 327.717773,172.219055 327.965027,163.630692 
	C327.850220,163.171783 327.735413,162.712875 327.703888,161.642441 
	C327.458679,161.078064 327.213501,160.513687 326.849213,159.236252 
	C321.851196,154.987534 316.495544,158.930527 311.322876,158.657913 
	C311.256073,158.654373 311.110443,160.146667 311.078278,161.465958 
M288.450958,209.305481 
	C288.302521,209.856705 288.154083,210.407928 288.032074,211.664261 
	C288.097687,211.890137 288.163300,212.115997 288.166687,213.223343 
	C288.090698,217.142853 288.014709,221.062378 287.623016,225.167877 
	C287.571930,225.278061 287.448517,225.428055 287.483185,225.491058 
	C287.592468,225.689606 287.761078,225.855499 288.020935,226.664154 
	C287.966400,227.085373 287.911865,227.506592 287.064789,227.977768 
	C284.824615,227.621689 282.584442,227.265610 280.199158,225.994003 
	C280.180969,212.027664 280.118683,198.061111 280.182373,184.095139 
	C280.194885,181.356064 280.711060,178.482086 284.448029,178.658508 
	C287.912811,178.822083 288.028442,181.532623 288.041046,184.123123 
	C288.061859,188.411316 288.046692,192.699677 288.046692,197.259216 
	C293.938141,197.259216 299.335266,197.259216 304.408417,197.259216 
	C304.408417,190.218704 304.408417,183.431580 304.758667,175.797287 
	C304.363800,173.379730 304.467682,170.735794 303.490387,168.582565 
	C298.417389,157.405365 282.692291,154.425308 273.239655,160.337952 
	C267.881958,163.689194 263.846497,167.957779 264.945221,175.839645 
	C264.633484,195.264435 263.492310,214.725403 264.337128,234.099762 
	C264.805176,244.833633 274.522675,250.209045 286.914185,249.273224 
	C298.009521,248.435272 304.516998,242.095673 304.977783,231.205002 
	C305.244965,224.890076 304.962830,218.551941 305.033600,211.424805 
	C305.017944,210.620621 305.002258,209.816437 304.966248,208.179611 
	C302.808075,205.473969 291.184906,204.925690 289.144989,207.478043 
	C288.883698,207.804962 289.007416,208.439575 288.974731,208.967926 
	C288.974731,208.967926 288.932770,208.974335 288.450958,209.305481 
M159.967743,160.031204 
	C159.967743,160.031204 159.939346,160.037384 159.944031,159.206314 
	C157.740097,156.351624 145.104462,155.909042 143.348770,158.699783 
	C142.969772,159.302231 143.189011,160.281036 143.118774,161.689072 
	C143.422226,162.158859 143.725693,162.628632 143.733643,163.969727 
	C146.579544,191.891663 149.425430,219.813599 152.277954,247.800430 
	C159.567368,247.800430 166.180756,247.800430 173.042389,247.800430 
	C174.207291,236.106125 175.354828,224.586365 176.502350,213.066589 
	C176.922409,213.059509 177.342468,213.052414 177.762527,213.045334 
	C179.019974,224.618683 180.277435,236.192017 181.519348,247.622406 
	C188.536926,247.622406 195.110916,247.622406 201.762329,247.622406 
	C202.724365,238.830261 203.665024,230.408951 204.563843,221.983170 
	C206.645889,202.465408 208.707687,182.945480 210.943634,162.603394 
	C210.920624,161.765808 210.897614,160.928238 210.870499,159.286697 
	C208.430588,156.684021 197.116394,155.906967 194.617126,158.250305 
	C194.223618,158.619263 194.273788,159.461441 194.030624,160.526001 
	C194.030624,160.526001 193.944626,160.967636 193.619202,161.161484 
	C193.558411,161.271149 193.418854,161.423645 193.451004,161.482773 
	C193.565536,161.693344 193.738480,161.872162 193.978836,162.782990 
	C194.049911,163.014160 194.120987,163.245331 194.107269,164.316650 
	C192.899139,178.437363 191.690994,192.558075 190.482864,206.678787 
	C189.977570,206.679611 189.472290,206.680450 188.967010,206.681290 
	C187.590134,192.171753 186.213257,177.662231 185.379120,162.878006 
	C185.235138,161.939987 185.091171,161.001984 184.964813,159.221649 
	C182.758530,156.381180 171.018768,155.903809 169.157745,158.619919 
	C168.921143,158.965225 169.100433,159.595520 169.040924,160.897430 
	C169.050232,161.965134 169.059555,163.032837 169.102570,164.982330 
	C167.834549,178.596115 166.566528,192.209900 165.298492,205.823685 
	C164.771301,205.808945 164.244095,205.794220 163.716904,205.779480 
	C162.440643,191.653107 161.164383,177.526733 160.078125,162.747482 
	C160.103180,162.522934 160.128235,162.298386 160.539764,161.711700 
	C160.348114,161.157227 160.156448,160.602768 159.967743,160.031204 
M401.853394,159.334656 
	C399.556122,156.737625 387.362396,155.826202 385.305420,158.175018 
	C384.958527,158.571167 385.140656,159.430618 385.018921,160.889389 
	C385.052368,161.704025 385.085785,162.518646 385.007935,164.222946 
	C384.932983,172.139023 384.858063,180.055084 383.931854,187.980011 
	C381.653442,187.982849 379.375000,187.985672 376.937134,187.064636 
	C376.893799,179.163055 376.850433,171.261459 376.917755,162.541412 
	C376.922516,161.716415 376.927307,160.891418 376.955414,159.224396 
	C376.826355,158.748672 376.713562,157.862442 376.565918,157.856613 
	C371.345306,157.650024 366.121307,157.485031 360.898529,157.506104 
	C360.624817,157.507187 360.357849,159.187454 360.049347,160.894257 
	C360.094543,161.696259 360.139771,162.498260 360.096497,164.196472 
	C360.096497,192.084824 360.096497,219.973175 360.096497,247.768280 
	C365.995361,247.768280 371.266876,247.768280 376.948364,247.768280 
	C376.948364,235.138123 376.948364,222.736023 376.948364,210.194427 
	C379.773529,210.194427 382.176483,210.194427 384.980072,210.194427 
	C384.980072,222.815887 384.980072,235.219086 384.980072,247.635132 
	C390.754822,247.635132 396.117828,247.635132 401.695923,247.635132 
	C401.695923,219.320526 401.695923,191.373505 401.901062,162.627197 
	C401.873901,161.801178 401.846741,160.975143 401.853394,159.334656 
M325.840393,276.302338 
	C320.825317,275.563812 315.818909,274.740448 310.781006,274.225220 
	C310.306335,274.176697 309.633423,276.066711 309.026489,277.894470 
	C309.087952,278.727814 309.149414,279.561157 309.052704,281.270050 
	C309.052704,309.037964 309.052704,336.805847 309.052704,364.671265 
	C314.803284,364.671265 320.175537,364.671265 326.017426,364.671265 
	C326.017426,351.948090 326.017426,339.554657 326.017426,327.328247 
	C328.899384,327.328247 331.296692,327.328247 334.145203,327.328247 
	C334.145203,340.062408 334.145203,352.454132 334.145203,364.690613 
	C339.870300,364.690613 345.119293,364.690613 350.709625,364.690613 
	C350.709625,336.427704 350.709625,308.478790 350.896362,279.679230 
	C351.060608,275.924530 349.067871,274.717773 345.587402,274.988861 
	C343.436584,275.156433 341.239532,275.221252 339.103088,274.979828 
	C334.837250,274.497650 333.208130,276.194305 333.987762,281.252625 
	C333.987762,290.982513 333.987762,300.712402 333.987762,310.550232 
	C330.967194,310.550232 328.605225,310.550232 325.765656,310.550232 
	C325.765656,300.293091 325.765656,290.370819 325.914734,279.616486 
	C325.914917,278.772766 325.915131,277.929016 325.840393,276.302338 
M250.885651,159.272797 
	C249.768631,158.520615 248.667816,157.146439 247.531967,157.116867 
	C239.962967,156.919647 232.383163,156.902893 224.816605,157.139206 
	C223.850983,157.169357 222.941788,159.006393 221.949112,160.771652 
	C221.956970,161.539261 221.964828,162.306885 221.817245,163.887375 
	C219.143570,191.597275 216.469910,219.307190 213.787323,247.109497 
	C219.654541,247.109497 224.730087,247.109497 230.023422,247.109497 
	C230.490250,242.597076 230.927414,238.371658 231.342484,234.359558 
	C234.943222,234.359558 238.177902,234.359558 241.542572,234.359558 
	C241.972198,238.768448 242.369797,242.848709 242.779953,247.057800 
	C248.204041,247.057800 253.223267,247.057800 258.693817,247.057800 
	C256.051392,218.886902 253.444901,191.099380 250.986252,162.512390 
	C250.966400,161.700333 250.946548,160.888275 250.885651,159.272797 
M179.983353,277.820190 
	C180.015701,278.615479 180.048050,279.410736 179.979630,281.046631 
	C177.344360,308.651703 174.709106,336.256775 172.046951,364.143433 
	C177.780884,364.143433 182.864624,364.143433 188.359756,364.143433 
	C188.736954,359.738098 189.099365,355.505249 189.462128,351.268433 
	C193.088562,351.268433 196.334717,351.268433 199.650726,351.268433 
	C200.161209,355.756134 200.641708,359.980286 201.098129,363.992645 
	C206.664719,363.992645 211.721588,363.992645 216.971786,363.992645 
	C214.272995,335.761444 211.612869,307.934692 209.013016,279.332916 
	C209.008728,278.556091 209.004440,277.779266 208.978989,276.168884 
	C208.083481,275.452087 207.200958,274.132721 206.290405,274.113068 
	C198.481461,273.944611 190.664276,273.906097 182.858963,274.141052 
	C181.885406,274.170380 180.966660,276.019623 179.983353,277.820190 
M158.267410,312.830536 
	C156.510101,311.220123 154.752777,309.609680 153.001465,307.303986 
	C153.004929,306.608612 153.008408,305.913269 153.933578,305.060028 
	C158.523331,305.060028 163.113098,305.060028 168.802750,305.060028 
	C167.632507,299.342010 166.592804,294.261841 166.159805,288.845123 
	C166.234344,288.231995 166.506485,287.564331 166.354446,287.013763 
	C162.867249,274.386353 142.977982,269.761780 133.279877,279.413544 
	C130.986465,281.695984 127.452911,283.860199 129.898087,288.659851 
	C129.599319,289.094299 129.300537,289.528748 128.220352,290.155273 
	C128.017349,291.650177 127.814331,293.145050 127.667542,295.480347 
	C125.896973,304.726501 128.139786,312.794983 134.687897,319.634674 
	C137.189697,322.247864 139.608444,324.940643 141.007614,327.771240 
	C137.111877,327.721680 133.203613,327.846466 129.324326,327.567902 
	C126.166931,327.341217 125.408081,328.251617 127.003403,331.813690 
	C127.048294,332.623169 127.093178,333.432678 127.096634,335.143555 
	C127.401909,340.618164 127.242073,346.168152 128.114502,351.550842 
	C129.671219,361.155426 135.943390,365.945770 146.431274,366.374207 
	C158.256973,366.857239 164.901611,363.309845 166.794983,353.332855 
	C168.184113,346.013000 167.190521,338.240906 167.603439,329.903198 
	C167.037750,327.311890 166.472046,324.720612 165.792252,321.625336 
	C165.528046,321.418518 165.263840,321.211700 164.454544,320.618500 
	C162.896835,318.433044 161.339142,316.247620 160.199493,313.806671 
	C159.745819,313.589600 159.292145,313.372528 158.267410,312.830536 
M357.517914,281.884888 
	C357.517914,309.466095 357.517914,337.047302 357.517914,364.747070 
	C363.193726,364.747070 368.279175,364.747070 373.887360,364.747070 
	C373.887360,336.716003 373.887360,308.940063 374.031036,280.297363 
	C373.798340,278.729492 373.565613,277.161621 373.282013,275.250671 
	C369.381592,275.250671 365.800537,275.379730 362.232758,275.217346 
	C357.958374,275.022797 356.751129,277.107178 357.517914,281.884888 
M267.226349,282.146881 
	C267.226349,286.936829 267.226349,291.726776 267.226349,297.121613 
	C270.830444,297.121613 274.030945,297.121613 277.584625,297.121613 
	C277.584625,320.131714 277.584625,342.527069 277.584625,365.149048 
	C283.223419,365.149048 288.481659,365.149048 294.283081,365.149048 
	C294.283081,342.406433 294.283081,319.863861 294.283081,296.873230 
	C297.901337,296.873230 300.979980,296.873230 304.179657,296.873230 
	C304.179657,291.276306 304.179657,286.134918 304.693329,280.480865 
	C305.461700,276.590302 303.197479,276.019318 300.070038,276.042145 
	C291.094391,276.107697 282.077850,276.550446 273.157532,275.839325 
	C268.250214,275.448090 266.653534,276.620697 267.226349,282.146881 
M138.836121,211.851059 
	C138.506927,205.012009 134.663864,200.157806 129.997726,195.623428 
	C127.732841,193.422485 125.984657,190.689865 124.928741,188.073105 
	C129.774155,188.073105 134.619568,188.073105 139.962921,188.073105 
	C139.276077,183.125900 138.714813,179.083298 138.616837,174.538895 
	C138.236572,169.422577 136.914673,164.422073 132.503204,161.560364 
	C124.958740,156.666336 116.772003,156.069122 108.419861,159.847641 
	C103.533928,162.058044 101.613960,166.149170 100.804970,171.883987 
	C96.312317,181.164093 98.360359,194.088226 105.634392,202.129745 
	C107.723640,204.439423 109.894394,206.675369 111.842056,209.742859 
	C108.424347,210.160995 105.016441,210.713715 101.586472,210.963455 
	C97.219749,211.281403 96.404671,213.403366 98.020531,217.986282 
	C98.734344,224.337067 98.946342,230.796585 100.292686,237.010315 
	C101.872444,244.301315 107.278336,248.075256 114.527763,249.003159 
	C117.473656,249.380219 120.505356,249.380829 123.477180,249.203537 
	C130.937408,248.758484 135.868484,244.813843 138.120972,237.732773 
	C140.754486,229.453949 140.850601,221.081955 138.836121,211.851059 
M227.786163,280.875702 
	C225.116928,308.599792 222.447693,336.323853 219.774933,364.084595 
	C225.663361,364.084595 230.750381,364.084595 236.050095,364.084595 
	C236.506454,359.592255 236.935440,355.369446 237.362961,351.161072 
	C240.901581,351.161072 244.024689,351.161072 247.389511,351.161072 
	C247.921249,355.628448 248.437744,359.967865 248.922150,364.037598 
	C254.578964,364.037598 259.490631,364.037598 264.630066,364.037598 
	C262.031128,335.863861 259.465668,308.053345 256.957764,279.340149 
	C256.867004,277.742950 256.776215,276.145721 256.658142,274.068085 
	C248.117065,274.068085 240.012817,274.098236 231.908936,274.056152 
	C227.436676,274.032928 226.555740,276.264130 227.786163,280.875702 
z"/>
<path fill="#238897" opacity="1.000000" stroke="none" 
	d="
M77.416542,115.139694 
	C79.429993,109.226082 85.352402,109.552055 90.158730,108.127167 
	C92.303505,107.491341 94.792633,108.015732 97.125473,108.015808 
	C200.770523,108.019081 304.415558,108.022606 408.533325,108.242081 
	C409.006073,108.458061 409.010345,108.872581 409.010345,108.872589 
	C406.517090,108.928474 404.023804,109.033043 401.530548,109.033249 
	C300.326294,109.041588 199.122040,109.062447 97.917847,108.995506 
	C90.499313,108.990601 83.787437,110.714401 77.416542,115.139694 
z"/>
<path fill="#0D0D0D" opacity="1.000000" stroke="none" 
	d="
M370.000000,116.996948 
	C279.041962,116.996948 188.583939,116.996948 98.125900,116.996948 
	C98.125938,116.760910 98.125969,116.524872 98.125999,116.288834 
	C201.974792,116.288834 305.823578,116.288834 409.672363,116.288834 
	C409.676910,116.524872 409.681427,116.760910 409.685974,116.996948 
	C396.623993,116.996948 383.561981,116.996948 370.000000,116.996948 
z"/>
<path fill="#238897" opacity="1.000000" stroke="none" 
	d="
M67.367928,405.600037 
	C66.577049,403.631775 65.087906,401.221344 65.084641,398.808899 
	C64.966057,311.257721 64.920486,223.706207 65.123238,136.155350 
	C65.137825,129.857224 66.172890,123.163445 72.687744,119.038040 
	C66.954567,127.559845 65.924843,137.190308 65.947151,147.420288 
	C66.125793,229.378250 66.027443,311.336792 66.100876,393.295044 
	C66.104424,397.249359 66.923325,401.202972 67.367928,405.600037 
z"/>
<path fill="#2594A7" opacity="1.000000" stroke="none" 
	d="
M409.389709,108.971863 
	C409.010345,108.872581 409.006073,108.458061 409.001709,108.251358 
	C415.895020,107.575630 421.821930,109.357124 425.948181,115.709793 
	C420.565582,113.737114 415.167297,111.404129 409.389709,108.971863 
z"/>
<path fill="#34828F" opacity="1.000000" stroke="none" 
	d="
M432.777954,409.302063 
	C432.777405,409.945740 432.538147,410.797577 431.971649,411.762634 
	C431.942688,411.087280 432.240967,410.298737 432.777954,409.302063 
z"/>
<path fill="#34828F" opacity="1.000000" stroke="none" 
	d="
M428.821350,415.285370 
	C428.704315,415.807098 428.322968,416.381836 427.680115,417.035156 
	C427.798096,416.521942 428.177551,415.930145 428.821350,415.285370 
z"/>
<path fill="#238897" opacity="1.000000" stroke="none" 
	d="
M74.599152,117.340302 
	C74.680885,116.917526 75.065994,116.473419 75.785080,116.027267 
	C75.713539,116.456467 75.308029,116.887718 74.599152,117.340302 
z"/>
<path fill="#238897" opacity="1.000000" stroke="none" 
	d="
M73.296539,118.925446 
	C73.249268,118.477676 73.476646,117.910370 74.031281,117.317978 
	C74.096100,117.797226 73.833649,118.301559 73.296539,118.925446 
z"/>
<path fill="#34828F" opacity="1.000000" stroke="none" 
	d="
M423.727295,420.095123 
	C423.768860,420.305573 423.560394,420.557251 423.105499,420.859039 
	C423.065155,420.651550 423.271210,420.393951 423.727295,420.095123 
z"/>
<path fill="#34828F" opacity="1.000000" stroke="none" 
	d="
M79.084366,420.763702 
	C78.879318,420.839600 78.574341,420.653076 78.147812,420.224915 
	C78.345657,420.155975 78.665047,420.328613 79.084366,420.763702 
z"/>
<path fill="#34828F" opacity="1.000000" stroke="none" 
	d="
M426.871460,417.427460 
	C426.954620,417.572815 426.851898,417.709259 426.634155,417.913025 
	C426.414368,417.755463 426.469879,417.568237 426.871460,417.427460 
z"/>
<path fill="#34828F" opacity="1.000000" stroke="none" 
	d="
M429.769379,414.179138 
	C429.929108,414.383453 429.801361,414.617676 429.424561,414.920532 
	C429.200287,414.711060 429.302429,414.451050 429.769379,414.179138 
z"/>
<path fill="#34828F" opacity="1.000000" stroke="none" 
	d="
M430.820740,412.583984 
	C430.912384,412.657593 430.828644,412.771973 430.808533,412.796936 
	C430.788422,412.821899 430.729095,412.510376 430.820740,412.583984 
z"/>
<path fill="#0297B1" opacity="1.000000" stroke="none" 
	d="
M437.015320,407.015015 
	C436.479614,408.555450 435.928986,410.081451 435.378387,411.607452 
	C434.871490,411.368134 434.364594,411.128784 433.857666,410.889465 
	C434.671783,409.620453 435.485931,408.351471 436.635284,407.027100 
	C436.970520,406.971741 437.000458,407.000519 437.015320,407.015015 
z"/>
<path fill="#050606" opacity="1.000000" stroke="none" 
	d="
M210.777679,163.426437 
	C208.707687,182.945480 206.645889,202.465408 204.563843,221.983170 
	C203.665024,230.408951 202.724365,238.830261 201.762329,247.622406 
	C195.110916,247.622406 188.536926,247.622406 181.519348,247.622406 
	C180.277435,236.192017 179.019974,224.618683 177.762527,213.045334 
	C177.342468,213.052414 176.922409,213.059509 176.502350,213.066589 
	C175.354828,224.586365 174.207291,236.106125 173.042389,247.800430 
	C166.180756,247.800430 159.567368,247.800430 152.277954,247.800430 
	C149.425430,219.813599 146.579544,191.891663 144.343140,163.617981 
	C149.931137,163.310959 154.909637,163.355667 159.888123,163.400360 
	C161.164383,177.526733 162.440643,191.653107 163.716904,205.779480 
	C164.244095,205.794220 164.771301,205.808945 165.298492,205.823685 
	C166.566528,192.209900 167.834549,178.596115 169.451065,164.343231 
	C174.811844,163.520309 179.824112,163.336502 184.836395,163.152695 
	C186.213257,177.662231 187.590134,192.171753 188.967010,206.681290 
	C189.472290,206.680450 189.977570,206.679611 190.482864,206.678787 
	C191.690994,192.558075 192.899139,178.437363 194.605621,163.860870 
	C200.328552,163.412216 205.553116,163.419327 210.777679,163.426437 
z"/>
<path fill="#040605" opacity="1.000000" stroke="none" 
	d="
M350.709625,280.529907 
	C350.709625,308.478790 350.709625,336.427704 350.709625,364.690613 
	C345.119293,364.690613 339.870300,364.690613 334.145203,364.690613 
	C334.145203,352.454132 334.145203,340.062408 334.145203,327.328247 
	C331.296692,327.328247 328.899384,327.328247 326.017426,327.328247 
	C326.017426,339.554657 326.017426,351.948090 326.017426,364.671265 
	C320.175537,364.671265 314.803284,364.671265 309.052704,364.671265 
	C309.052704,336.805847 309.052704,309.037964 309.584656,280.801483 
	C315.332947,280.371460 320.549316,280.410004 325.765656,280.448547 
	C325.765656,290.370819 325.765656,300.293091 325.765656,310.550232 
	C328.605225,310.550232 330.967194,310.550232 333.987762,310.550232 
	C333.987762,300.712402 333.987762,290.982513 334.521179,280.803528 
	C340.272949,280.412903 345.491272,280.471405 350.709625,280.529907 
z"/>
<path fill="#040504" opacity="1.000000" stroke="none" 
	d="
M384.783142,187.971161 
	C384.858063,180.055084 384.932983,172.139023 385.524597,163.770462 
	C391.259491,163.354141 396.477692,163.390320 401.695923,163.426483 
	C401.695923,191.373505 401.695923,219.320526 401.695923,247.635132 
	C396.117828,247.635132 390.754822,247.635132 384.980072,247.635132 
	C384.980072,235.219086 384.980072,222.815887 384.980072,210.194427 
	C382.176483,210.194427 379.773529,210.194427 376.948364,210.194427 
	C376.948364,222.736023 376.948364,235.138123 376.948364,247.768280 
	C371.266876,247.768280 365.995361,247.768280 360.096497,247.768280 
	C360.096497,219.973175 360.096497,192.084824 360.595459,163.755585 
	C366.332001,163.329773 371.569519,163.344818 376.807068,163.359879 
	C376.850433,171.261459 376.893799,179.163055 376.926453,187.963348 
	C376.915771,190.462082 376.915771,192.062119 376.915771,193.678314 
	C379.922821,193.678314 382.338287,193.678314 384.783112,193.678314 
	C384.783112,191.594299 384.783112,189.782730 384.783142,187.971161 
z"/>
<path fill="#040505" opacity="1.000000" stroke="none" 
	d="
M335.584839,189.495239 
	C335.627411,181.311295 335.670013,173.127365 335.989319,164.400513 
	C336.507904,163.615036 336.749695,163.372467 337.454651,163.208237 
	C342.731995,163.318314 347.546204,163.350082 352.354187,163.344971 
	C352.347992,163.308105 352.344666,163.394775 352.344666,163.394775 
	C352.344666,191.479614 352.344666,219.564468 352.344666,247.826584 
	C346.918884,247.826584 341.642822,247.826584 335.860962,247.826584 
	C335.860962,235.285736 335.860962,222.901993 335.860962,210.248688 
	C332.964478,210.248688 330.567230,210.248688 327.644196,210.248688 
	C327.644196,222.746948 327.644196,235.139984 327.644196,247.763428 
	C321.875488,247.763428 316.624115,247.763428 310.833527,247.763428 
	C310.833527,245.916641 310.833618,244.146317 310.833527,242.375977 
	C310.831879,217.400726 310.824158,192.425461 310.845764,167.450226 
	C310.846893,166.141693 311.097748,164.833389 311.971252,163.376190 
	C317.143158,163.192230 321.576172,163.157043 326.207642,163.297562 
	C326.848663,163.751953 327.291229,164.030640 327.733826,164.309326 
	C327.717773,172.219055 327.701721,180.128769 327.569641,188.830322 
	C327.528656,191.037338 327.603790,192.452545 327.682678,193.939270 
	C330.539673,193.939270 332.991364,193.939270 335.935486,193.939270 
	C335.808746,192.333160 335.696777,190.914200 335.584839,189.495239 
z"/>
<path fill="#050606" opacity="1.000000" stroke="none" 
	d="
M250.838425,163.311890 
	C253.444901,191.099380 256.051392,218.886902 258.693817,247.057800 
	C253.223267,247.057800 248.204041,247.057800 242.779953,247.057800 
	C242.369797,242.848709 241.972198,238.768448 241.542572,234.359558 
	C238.177902,234.359558 234.943222,234.359558 231.342484,234.359558 
	C230.927414,238.371658 230.490250,242.597076 230.023422,247.109497 
	C224.730087,247.109497 219.654541,247.109497 213.787323,247.109497 
	C216.469910,219.307190 219.143570,191.597275 222.366989,163.456863 
	C232.223969,163.121521 241.531189,163.216705 250.838425,163.311890 
M234.941696,186.356415 
	C234.131149,197.661377 233.320587,208.966324 232.510834,220.260147 
	C235.522217,220.260147 237.615250,220.260147 240.261414,220.260147 
	C239.031158,206.011169 237.828156,192.078018 236.625168,178.144882 
	C236.251404,178.151932 235.877640,178.158981 235.503876,178.166031 
	C235.325272,180.593307 235.146667,183.020584 234.941696,186.356415 
z"/>
<path fill="#040606" opacity="1.000000" stroke="none" 
	d="
M256.900238,280.242798 
	C259.465668,308.053345 262.031128,335.863861 264.630066,364.037598 
	C259.490631,364.037598 254.578964,364.037598 248.922150,364.037598 
	C248.437744,359.967865 247.921249,355.628448 247.389511,351.161072 
	C244.024689,351.161072 240.901581,351.161072 237.362961,351.161072 
	C236.935440,355.369446 236.506454,359.592255 236.050095,364.084595 
	C230.750381,364.084595 225.663361,364.084595 219.774933,364.084595 
	C222.447693,336.323853 225.116928,308.599792 228.340881,280.428619 
	C238.230484,280.068634 247.565353,280.155701 256.900238,280.242798 
M238.727844,333.591492 
	C237.803528,341.086609 243.195694,336.290253 246.164474,337.963104 
	C245.976456,335.733948 245.858765,334.338593 245.833878,332.102692 
	C244.866760,321.393829 243.899658,310.684967 242.932541,299.976105 
	C242.313629,299.992126 241.694702,300.008148 241.075790,300.024170 
	C240.393982,310.999725 239.712173,321.975250 238.727844,333.591492 
z"/>
<path fill="#040505" opacity="1.000000" stroke="none" 
	d="
M208.952728,280.107971 
	C211.612869,307.934692 214.272995,335.761444 216.971786,363.992645 
	C211.721588,363.992645 206.664719,363.992645 201.098129,363.992645 
	C200.641708,359.980286 200.161209,355.756134 199.650726,351.268433 
	C196.334717,351.268433 193.088562,351.268433 189.462128,351.268433 
	C189.099365,355.505249 188.736954,359.738098 188.359756,364.143433 
	C182.864624,364.143433 177.780884,364.143433 172.046951,364.143433 
	C174.709106,336.256775 177.344360,308.651703 180.490936,280.561432 
	C190.319061,280.086823 199.635895,280.097412 208.952728,280.107971 
M197.998260,332.044312 
	C196.961624,319.684692 195.924988,307.325104 194.888351,294.965485 
	C194.505325,294.952118 194.122299,294.938721 193.739273,294.925323 
	C192.867828,307.590363 191.996384,320.255371 190.871582,333.763672 
	C190.401688,340.987976 195.411209,336.692200 198.618210,337.851013 
	C198.335434,335.758667 198.145416,334.352783 197.998260,332.044312 
z"/>
<path fill="#060707" opacity="1.000000" stroke="none" 
	d="
M304.927917,212.224243 
	C304.962830,218.551941 305.244965,224.890076 304.977783,231.205002 
	C304.516998,242.095673 298.009521,248.435272 286.914185,249.273224 
	C274.522675,250.209045 264.805176,244.833633 264.337128,234.099762 
	C263.492310,214.725403 264.633484,195.264435 265.230377,175.231293 
	C269.056610,165.741806 276.213257,162.817886 285.056610,163.121582 
	C294.326843,163.439972 301.267029,167.402924 304.408417,176.644470 
	C304.408417,183.431580 304.408417,190.218704 304.408417,197.259216 
	C299.335266,197.259216 293.938141,197.259216 288.046692,197.259216 
	C288.046692,192.699677 288.061859,188.411316 288.041046,184.123123 
	C288.028442,181.532623 287.912811,178.822083 284.448029,178.658508 
	C280.711060,178.482086 280.194885,181.356064 280.182373,184.095139 
	C280.118683,198.061111 280.180969,212.027664 280.159790,226.842758 
	C280.114655,230.768082 280.778931,233.110428 284.671906,233.062668 
	C288.683105,233.013443 287.809509,230.259369 287.857330,227.927811 
	C287.911865,227.506592 287.966400,227.085373 288.064758,226.088776 
	C288.051941,225.336243 287.995361,225.159073 287.938721,224.981888 
	C288.014709,221.062378 288.090698,217.142853 288.648834,212.751801 
	C294.396637,212.261597 299.662262,212.242920 304.927917,212.224243 
z"/>
<path fill="#050707" opacity="1.000000" stroke="none" 
	d="
M112.027786,208.945099 
	C109.894394,206.675369 107.723640,204.439423 105.634392,202.129745 
	C98.360359,194.088226 96.312317,181.164093 101.130997,171.252838 
	C114.324112,158.610748 130.065292,160.506317 138.153549,175.040695 
	C138.714813,179.083298 139.276077,183.125900 139.962921,188.073105 
	C134.619568,188.073105 129.774155,188.073105 124.216751,188.015442 
	C123.076141,187.623764 122.647530,187.289749 122.343719,186.528519 
	C122.404533,184.952225 122.730049,183.555740 122.191605,182.708023 
	C121.213257,181.167770 119.721230,179.953812 118.443573,178.603668 
	C117.335106,180.050003 116.226639,181.496338 115.038818,183.314941 
	C117.031219,186.788284 118.845482,190.105072 121.226311,192.947281 
	C126.842316,199.651611 132.728226,206.129852 138.504959,212.699554 
	C140.850601,221.081955 140.754486,229.453949 138.120972,237.732773 
	C135.868484,244.813843 130.937408,248.758484 123.477180,249.203537 
	C120.505356,249.380829 117.473656,249.380219 114.527763,249.003159 
	C107.278336,248.075256 101.872444,244.301315 100.292686,237.010315 
	C98.946342,230.796585 98.734344,224.337067 98.268387,217.493271 
	C98.516235,217.000259 98.905724,216.847015 99.375092,216.927536 
	C104.886230,217.032318 109.928001,217.056580 115.049820,217.530212 
	C115.282455,221.617691 115.435028,225.255798 115.485054,229.278412 
	C115.546753,234.511261 119.013031,232.783554 121.598526,232.922501 
	C122.121872,231.525208 122.600502,230.247269 123.184357,228.545013 
	C124.086998,219.055817 117.995598,214.036758 112.027786,208.945099 
z"/>
<path fill="#050708" opacity="1.000000" stroke="none" 
	d="
M167.258850,330.670380 
	C167.190521,338.240906 168.184113,346.013000 166.794983,353.332855 
	C164.901611,363.309845 158.256973,366.857239 146.431274,366.374207 
	C135.943390,365.945770 129.671219,361.155426 128.114502,351.550842 
	C127.242073,346.168152 127.401909,340.618164 127.571877,334.628876 
	C133.302551,334.209015 138.557968,334.303833 143.766617,334.828918 
	C143.826920,338.491821 143.933990,341.724396 143.949188,345.336884 
	C144.550598,347.506226 145.243896,349.295685 145.937195,351.085144 
	C146.556992,351.243591 147.176788,351.402008 147.796585,351.560455 
	C149.066345,349.677948 150.336121,347.795410 151.713730,345.516418 
	C152.355408,337.188354 147.938660,332.007874 142.081940,327.634399 
	C142.067490,327.649200 142.061447,327.612030 142.044678,327.621155 
	C142.027893,327.630280 142.065033,327.597137 142.065033,327.597137 
	C139.608444,324.940643 137.189697,322.247864 134.687897,319.634674 
	C128.139786,312.794983 125.896973,304.726501 127.836250,294.765717 
	C128.337234,292.688446 128.669495,291.325836 129.001755,289.963196 
	C129.300537,289.528748 129.599319,289.094299 130.218079,288.215057 
	C134.023560,285.444092 137.218719,282.024658 141.051636,281.006805 
	C150.670792,278.452423 159.384644,280.478729 165.553085,289.181641 
	C166.592804,294.261841 167.632507,299.342010 168.802750,305.060028 
	C163.113098,305.060028 158.523331,305.060028 153.150818,305.057373 
	C151.930405,304.993835 151.492767,304.932892 151.052551,304.916077 
	C151.049988,304.960236 151.137222,304.945618 151.049377,304.516296 
	C150.933167,302.774200 150.852432,301.460114 150.887054,300.149017 
	C150.966278,297.148407 149.770615,295.356171 146.545273,295.711761 
	C143.029907,296.099304 142.343140,298.165527 143.614685,301.560608 
	C145.479858,304.407410 147.184845,306.994720 149.159210,309.356934 
	C155.136368,316.508240 161.217957,323.572327 167.258850,330.670380 
z"/>
<path fill="#060706" opacity="1.000000" stroke="none" 
	d="
M304.179657,280.993561 
	C304.179657,286.134918 304.179657,291.276306 304.179657,296.873230 
	C300.979980,296.873230 297.901337,296.873230 294.283081,296.873230 
	C294.283081,319.863861 294.283081,342.406433 294.283081,365.149048 
	C288.481659,365.149048 283.223419,365.149048 277.584625,365.149048 
	C277.584625,342.527069 277.584625,320.131714 277.584625,297.121613 
	C274.030945,297.121613 270.830444,297.121613 267.226349,297.121613 
	C267.226349,291.726776 267.226349,286.936829 267.662537,281.592468 
	C280.125732,281.023224 292.152679,281.008392 304.179657,280.993561 
z"/>
<path fill="#040505" opacity="1.000000" stroke="none" 
	d="
M373.887360,281.164124 
	C373.887360,308.940063 373.887360,336.716003 373.887360,364.747070 
	C368.279175,364.747070 363.193726,364.747070 357.517914,364.747070 
	C357.517914,337.047302 357.517914,309.466095 358.003143,281.271423 
	C363.621368,280.826660 368.754364,280.995392 373.887360,281.164124 
z"/>
<path fill="#A6E0DF" opacity="1.000000" stroke="none" 
	d="
M304.583557,176.220886 
	C301.267029,167.402924 294.326843,163.439972 285.056610,163.121582 
	C276.213257,162.817886 269.056610,165.741806 265.241852,174.830322 
	C263.846497,167.957779 267.881958,163.689194 273.239655,160.337952 
	C282.692291,154.425308 298.417389,157.405365 303.490387,168.582565 
	C304.467682,170.735794 304.363800,173.379730 304.583557,176.220886 
z"/>
<path fill="#A4DEDC" opacity="1.000000" stroke="none" 
	d="
M165.856445,289.013367 
	C159.384644,280.478729 150.670792,278.452423 141.051636,281.006805 
	C137.218719,282.024658 134.023560,285.444092 130.237640,287.949951 
	C127.452911,283.860199 130.986465,281.695984 133.279877,279.413544 
	C142.977982,269.761780 162.867249,274.386353 166.354446,287.013763 
	C166.506485,287.564331 166.234344,288.231995 165.856445,289.013367 
z"/>
<path fill="#A6E0DF" opacity="1.000000" stroke="none" 
	d="
M138.385193,174.789795 
	C130.065292,160.506317 114.324112,158.610748 101.237663,170.880524 
	C101.613960,166.149170 103.533928,162.058044 108.419861,159.847641 
	C116.772003,156.069122 124.958740,156.666336 132.503204,161.560364 
	C136.914673,164.422073 138.236572,169.422577 138.385193,174.789795 
z"/>
<path fill="#9DDADA" opacity="1.000000" stroke="none" 
	d="
M304.436493,280.737213 
	C292.152679,281.008392 280.125732,281.023224 267.655151,281.140747 
	C266.653534,276.620697 268.250214,275.448090 273.157532,275.839325 
	C282.077850,276.550446 291.094391,276.107697 300.070038,276.042145 
	C303.197479,276.019318 305.461700,276.590302 304.436493,280.737213 
z"/>
<path fill="#B9EBEB" opacity="1.000000" stroke="none" 
	d="
M256.929016,279.791443 
	C247.565353,280.155701 238.230484,280.068634 228.421997,280.017944 
	C226.555740,276.264130 227.436676,274.032928 231.908936,274.056152 
	C240.012817,274.098236 248.117065,274.068085 256.658142,274.068085 
	C256.776215,276.145721 256.867004,277.742950 256.929016,279.791443 
z"/>
<path fill="#E4F5F5" opacity="1.000000" stroke="none" 
	d="
M115.587601,228.893890 
	C115.435028,225.255798 115.282455,221.617691 115.060608,217.151932 
	C114.650757,215.468033 114.308792,213.867218 113.969833,213.867859 
	C109.293739,213.876648 104.613419,214.043198 99.950424,214.390152 
	C99.543510,214.420425 99.251244,215.991577 98.905724,216.847015 
	C98.905724,216.847015 98.516235,217.000259 98.309570,217.034882 
	C96.404671,213.403366 97.219749,211.281403 101.586472,210.963455 
	C105.016441,210.713715 108.424347,210.160995 111.934921,209.343979 
	C117.995598,214.036758 124.086998,219.055817 122.761108,228.564270 
	C120.017624,228.969864 117.802612,228.931885 115.587601,228.893890 
z"/>
<path fill="#B0E2DF" opacity="1.000000" stroke="none" 
	d="
M138.670532,212.275299 
	C132.728226,206.129852 126.842316,199.651611 121.226311,192.947281 
	C118.845482,190.105072 117.031219,186.788284 115.379028,183.370300 
	C117.938698,184.354202 120.078804,185.654968 122.218918,186.955750 
	C122.647530,187.289749 123.076141,187.623764 123.753654,188.077850 
	C125.984657,190.689865 127.732841,193.422485 129.997726,195.623428 
	C134.663864,200.157806 138.506927,205.012009 138.670532,212.275299 
z"/>
<path fill="#EAF6F7" opacity="1.000000" stroke="none" 
	d="
M144.041061,344.957001 
	C143.933990,341.724396 143.826920,338.491821 143.807159,334.440063 
	C142.941605,332.526764 142.013397,330.520294 141.031647,330.493744 
	C136.363953,330.367493 131.681686,330.780304 127.004616,331.001221 
	C125.408081,328.251617 126.166931,327.341217 129.324326,327.567902 
	C133.203613,327.846466 137.111877,327.721680 141.536316,327.684204 
	C142.065033,327.597137 142.027893,327.630280 141.860168,327.728668 
	C141.827087,327.757874 141.961746,327.688721 142.096405,327.619568 
	C147.938660,332.007874 152.355408,337.188354 151.346771,345.465515 
	C148.595001,345.526398 146.318039,345.241699 144.041061,344.957001 
z"/>
<path fill="#A4DEDC" opacity="1.000000" stroke="none" 
	d="
M167.431152,330.286804 
	C161.217957,323.572327 155.136368,316.508240 149.159210,309.356934 
	C147.184845,306.994720 145.479858,304.407410 143.991470,301.535706 
	C146.599884,302.414154 148.868546,303.679901 151.137222,304.945618 
	C151.137222,304.945618 151.049988,304.960236 151.026657,305.252045 
	C151.667374,306.362335 152.331421,307.180786 152.995468,307.999268 
	C154.752777,309.609680 156.510101,311.220123 158.669586,313.183838 
	C159.255569,313.783478 159.492126,313.958496 159.781433,314.062195 
	C161.339142,316.247620 162.896835,318.433044 164.822708,321.039520 
	C165.366501,321.750732 165.604996,321.973633 165.906342,322.129303 
	C166.472046,324.720612 167.037750,327.311890 167.431152,330.286804 
z"/>
<path fill="#96B6B5" opacity="1.000000" stroke="none" 
	d="
M373.959198,280.730743 
	C368.754364,280.995392 363.621368,280.826660 358.006256,280.799622 
	C356.751129,277.107178 357.958374,275.022797 362.232758,275.217346 
	C365.800537,275.379730 369.381592,275.250671 373.282013,275.250671 
	C373.565613,277.161621 373.798340,278.729492 373.959198,280.730743 
z"/>
<path fill="#A4E6E4" opacity="1.000000" stroke="none" 
	d="
M208.982880,279.720459 
	C199.635895,280.097412 190.319061,280.086823 180.541321,280.141113 
	C180.048050,279.410736 180.015701,278.615479 180.469208,277.416809 
	C190.303421,277.009766 199.651794,277.006104 209.000153,277.002441 
	C209.004440,277.779266 209.008728,278.556091 208.982880,279.720459 
z"/>
<path fill="#D2F6F7" opacity="1.000000" stroke="none" 
	d="
M208.989563,276.585663 
	C199.651794,277.006104 190.303421,277.009766 180.488785,277.019501 
	C180.966660,276.019623 181.885406,274.170380 182.858963,274.141052 
	C190.664276,273.906097 198.481461,273.944611 206.290405,274.113068 
	C207.200958,274.132721 208.083481,275.452087 208.989563,276.585663 
z"/>
<path fill="#A4E6E4" opacity="1.000000" stroke="none" 
	d="
M250.912338,162.912140 
	C241.531189,163.216705 232.223969,163.121521 222.444702,163.050415 
	C221.964828,162.306885 221.956970,161.539261 222.445724,160.383423 
	C232.270462,160.022202 241.598572,160.049210 250.926697,160.076218 
	C250.946548,160.888275 250.966400,161.700333 250.912338,162.912140 
z"/>
<path fill="#D2F6F7" opacity="1.000000" stroke="none" 
	d="
M250.906174,159.674500 
	C241.598572,160.049210 232.270462,160.022202 222.474396,160.000763 
	C222.941788,159.006393 223.850983,157.169357 224.816605,157.139206 
	C232.383163,156.902893 239.962967,156.919647 247.531967,157.116867 
	C248.667816,157.146439 249.768631,158.520615 250.906174,159.674500 
z"/>
<path fill="#B0E2DF" opacity="1.000000" stroke="none" 
	d="
M350.802979,280.104553 
	C345.491272,280.471405 340.272949,280.412903 334.594086,280.363281 
	C333.208130,276.194305 334.837250,274.497650 339.103088,274.979828 
	C341.239532,275.221252 343.436584,275.156433 345.587402,274.988861 
	C349.067871,274.717773 351.060608,275.924530 350.802979,280.104553 
z"/>
<path fill="#A4E6E4" opacity="1.000000" stroke="none" 
	d="
M127.004013,331.407471 
	C131.681686,330.780304 136.363953,330.367493 141.031647,330.493744 
	C142.013397,330.520294 142.941605,332.526764 143.853943,334.009796 
	C138.557968,334.303833 133.302551,334.209015 127.592590,334.178162 
	C127.093178,333.432678 127.048294,332.623169 127.004013,331.407471 
z"/>
<path fill="#A4DEDC" opacity="1.000000" stroke="none" 
	d="
M185.107758,163.015350 
	C179.824112,163.336502 174.811844,163.520309 169.434204,163.902328 
	C169.059555,163.032837 169.050232,161.965134 169.521301,160.471619 
	C174.983521,160.051849 179.965363,160.057907 184.947205,160.063965 
	C185.091171,161.001984 185.235138,161.939987 185.107758,163.015350 
z"/>
<path fill="#CEEFEF" opacity="1.000000" stroke="none" 
	d="
M143.132690,161.086487 
	C143.189011,160.281036 142.969772,159.302231 143.348770,158.699783 
	C145.104462,155.909042 157.740097,156.351624 159.482254,159.615524 
	C153.724548,160.378647 148.428635,160.732559 143.132690,161.086487 
z"/>
<path fill="#A4E6E4" opacity="1.000000" stroke="none" 
	d="
M376.862427,162.950653 
	C371.569519,163.344818 366.332001,163.329773 360.639709,163.307495 
	C360.139771,162.498260 360.094543,161.696259 360.526306,160.467957 
	C366.312866,160.049896 371.622467,160.058151 376.932098,160.066406 
	C376.927307,160.891418 376.922516,161.716415 376.862427,162.950653 
z"/>
<path fill="#D2F6F7" opacity="1.000000" stroke="none" 
	d="
M376.943756,159.645401 
	C371.622467,160.058151 366.312866,160.049896 360.545502,160.063812 
	C360.357849,159.187454 360.624817,157.507187 360.898529,157.506104 
	C366.121307,157.485031 371.345306,157.650024 376.565918,157.856613 
	C376.713562,157.862442 376.826355,158.748672 376.943756,159.645401 
z"/>
<path fill="#A6E0DF" opacity="1.000000" stroke="none" 
	d="
M325.840210,280.032532 
	C320.549316,280.410004 315.332947,280.371460 309.663757,280.363708 
	C309.149414,279.561157 309.087952,278.727814 309.501343,277.459595 
	C315.289276,277.044922 320.602295,277.065125 325.915344,277.085327 
	C325.915131,277.929016 325.914917,278.772766 325.840210,280.032532 
z"/>
<path fill="#A4E6E4" opacity="1.000000" stroke="none" 
	d="
M401.798492,163.026840 
	C396.477692,163.390320 391.259491,163.354141 385.580261,163.325623 
	C385.085785,162.518646 385.052368,161.704025 385.507446,160.457062 
	C391.270538,160.066193 396.545044,160.107666 401.819580,160.149124 
	C401.846741,160.975143 401.873901,161.801178 401.798492,163.026840 
z"/>
<path fill="#A4E6E4" opacity="1.000000" stroke="none" 
	d="
M210.860657,163.014923 
	C205.553116,163.419327 200.328552,163.412216 194.648010,163.440796 
	C194.120987,163.245331 194.049911,163.014160 193.967865,162.149963 
	C193.952805,161.333832 193.948715,161.150726 193.944626,160.967636 
	C193.944626,160.967636 194.030624,160.526001 194.529327,160.284866 
	C200.310226,160.059372 205.592422,160.075012 210.874603,160.090652 
	C210.897614,160.928238 210.920624,161.765808 210.860657,163.014923 
z"/>
<path fill="#D2F6F7" opacity="1.000000" stroke="none" 
	d="
M401.836487,159.741882 
	C396.545044,160.107666 391.270538,160.066193 385.537170,160.050385 
	C385.140656,159.430618 384.958527,158.571167 385.305420,158.175018 
	C387.362396,155.826202 399.556122,156.737625 401.836487,159.741882 
z"/>
<path fill="#A4E6E4" opacity="1.000000" stroke="none" 
	d="
M304.980774,211.824524 
	C299.662262,212.242920 294.396637,212.261597 288.679932,212.311066 
	C288.163300,212.115997 288.097687,211.890137 288.258911,211.145477 
	C288.634735,210.075912 288.783752,209.525116 288.932770,208.974335 
	C288.932770,208.974335 288.974731,208.967926 289.435120,208.974304 
	C294.925873,208.991196 299.956238,209.001724 304.986603,209.012253 
	C305.002258,209.816437 305.017944,210.620621 304.980774,211.824524 
z"/>
<path fill="#CEEFEF" opacity="1.000000" stroke="none" 
	d="
M210.872559,159.688675 
	C205.592422,160.075012 200.310226,160.059372 194.573425,160.064270 
	C194.273788,159.461441 194.223618,158.619263 194.617126,158.250305 
	C197.116394,155.906967 208.430588,156.684021 210.872559,159.688675 
z"/>
<path fill="#A4E6E4" opacity="1.000000" stroke="none" 
	d="
M143.125732,161.387787 
	C148.428635,160.732559 153.724548,160.378647 159.479919,160.031067 
	C159.939346,160.037384 159.967743,160.031204 159.976913,160.378387 
	C160.041824,161.175003 160.097565,161.624420 160.153305,162.073837 
	C160.128235,162.298386 160.103180,162.522934 159.983124,163.073929 
	C154.909637,163.355667 149.931137,163.310959 144.490906,163.182343 
	C143.725693,162.628632 143.422226,162.158859 143.125732,161.387787 
z"/>
<path fill="#D2F6F7" opacity="1.000000" stroke="none" 
	d="
M184.955994,159.642807 
	C179.965363,160.057907 174.983521,160.051849 169.544373,160.069794 
	C169.100433,159.595520 168.921143,158.965225 169.157745,158.619919 
	C171.018768,155.903809 182.758530,156.381180 184.955994,159.642807 
z"/>
<path fill="#D2F6F7" opacity="1.000000" stroke="none" 
	d="
M304.976440,208.595932 
	C299.956238,209.001724 294.925873,208.991196 289.424133,208.956146 
	C289.007416,208.439575 288.883698,207.804962 289.144989,207.478043 
	C291.184906,204.925690 302.808075,205.473969 304.976440,208.595932 
z"/>
<path fill="#CEEFEF" opacity="1.000000" stroke="none" 
	d="
M384.357483,187.975586 
	C384.783112,189.782730 384.783112,191.594299 384.783112,193.678314 
	C382.338287,193.678314 379.922821,193.678314 376.915771,193.678314 
	C376.915771,192.062119 376.915771,190.462082 377.006165,188.425262 
	C379.375000,187.985672 381.653442,187.982849 384.357483,187.975586 
z"/>
<path fill="#A4E6E4" opacity="1.000000" stroke="none" 
	d="
M352.360382,163.381851 
	C347.546204,163.350082 342.731995,163.318314 337.443573,162.769409 
	C338.109894,161.430481 339.199402,160.001480 340.400543,159.900513 
	C344.038727,159.594681 347.720184,159.803406 351.384766,159.811661 
	C351.806854,160.476303 352.228943,161.140945 352.445862,162.320862 
	C352.157379,163.044388 352.197266,163.226288 352.360382,163.381851 
z"/>
<path fill="#D2F6F7" opacity="1.000000" stroke="none" 
	d="
M325.877869,276.693848 
	C320.602295,277.065125 315.289276,277.044922 309.514374,277.040710 
	C309.633423,276.066711 310.306335,274.176697 310.781006,274.225220 
	C315.818909,274.740448 320.825317,275.563812 325.877869,276.693848 
z"/>
<path fill="#A4E6E4" opacity="1.000000" stroke="none" 
	d="
M326.009155,163.121841 
	C321.576172,163.157043 317.143158,163.192230 312.253265,163.048584 
	C311.556976,162.401840 311.317627,161.933899 311.425964,161.053162 
	C316.838562,160.410019 321.903442,160.179657 326.968323,159.949295 
	C327.213501,160.513687 327.458679,161.078064 327.415039,161.934128 
	C326.753815,162.524490 326.381500,162.823166 326.009155,163.121841 
z"/>
<path fill="#99B3B3" opacity="1.000000" stroke="none" 
	d="
M335.095398,189.453552 
	C335.696777,190.914200 335.808746,192.333160 335.935486,193.939270 
	C332.991364,193.939270 330.539673,193.939270 327.682678,193.939270 
	C327.603790,192.452545 327.528656,191.037338 327.629700,189.293488 
	C330.072540,189.113846 332.339264,189.262863 335.095398,189.453552 
z"/>
<path fill="#C4D6D5" opacity="1.000000" stroke="none" 
	d="
M326.908752,159.592773 
	C321.903442,160.179657 316.838562,160.410019 311.387634,160.790573 
	C311.110443,160.146667 311.256073,158.654373 311.322876,158.657913 
	C316.495544,158.930527 321.851196,154.987534 326.908752,159.592773 
z"/>
<path fill="#C4D6D5" opacity="1.000000" stroke="none" 
	d="
M287.461060,227.952789 
	C287.809509,230.259369 288.683105,233.013443 284.671906,233.062668 
	C280.778931,233.110428 280.114655,230.768082 280.232361,227.300507 
	C282.584442,227.265610 284.824615,227.621689 287.461060,227.952789 
z"/>
<path fill="#99B3B3" opacity="1.000000" stroke="none" 
	d="
M351.404602,159.473267 
	C347.720184,159.803406 344.038727,159.594681 340.400543,159.900513 
	C339.199402,160.001480 338.109894,161.430481 336.980408,162.691086 
	C336.749695,163.372467 336.507904,163.615036 336.017944,163.933212 
	C335.956451,162.311813 336.143097,160.614822 336.431274,157.994446 
	C341.598480,158.387482 346.511444,158.761185 351.404602,159.473267 
z"/>
<path fill="#A4DEDC" opacity="1.000000" stroke="none" 
	d="
M128.611053,290.059235 
	C128.669495,291.325836 128.337234,292.688446 127.808144,294.345520 
	C127.814331,293.145050 128.017349,291.650177 128.611053,290.059235 
z"/>
<path fill="#E4F5F5" opacity="1.000000" stroke="none" 
	d="
M152.998474,307.651611 
	C152.331421,307.180786 151.667374,306.362335 151.029236,305.207886 
	C151.492767,304.932892 151.930405,304.993835 152.689957,305.136322 
	C153.008408,305.913269 153.004929,306.608612 152.998474,307.651611 
z"/>
<path fill="#99B3B3" opacity="1.000000" stroke="none" 
	d="
M326.207642,163.297562 
	C326.381500,162.823166 326.753815,162.524490 327.373383,162.239899 
	C327.735413,162.712875 327.850220,163.171783 327.849426,163.970001 
	C327.291229,164.030640 326.848663,163.751953 326.207642,163.297562 
z"/>
<path fill="#E4F5F5" opacity="1.000000" stroke="none" 
	d="
M159.990463,313.934448 
	C159.492126,313.958496 159.255569,313.783478 158.955109,313.346313 
	C159.292145,313.372528 159.745819,313.589600 159.990463,313.934448 
z"/>
<path fill="#CEEFEF" opacity="1.000000" stroke="none" 
	d="
M160.346527,161.892761 
	C160.097565,161.624420 160.041824,161.175003 159.975433,160.386932 
	C160.156448,160.602768 160.348114,161.157227 160.346527,161.892761 
z"/>
<path fill="#D2F6F7" opacity="1.000000" stroke="none" 
	d="
M288.691864,209.139908 
	C288.783752,209.525116 288.634735,210.075912 288.245667,210.792923 
	C288.154083,210.407928 288.302521,209.856705 288.691864,209.139908 
z"/>
<path fill="#E4F5F5" opacity="1.000000" stroke="none" 
	d="
M165.849304,321.877319 
	C165.604996,321.973633 165.366501,321.750732 165.095261,321.232727 
	C165.263840,321.211700 165.528046,321.418518 165.849304,321.877319 
z"/>
<path fill="#CEEFEF" opacity="1.000000" stroke="none" 
	d="
M193.781921,161.064560 
	C193.948715,161.150726 193.952805,161.333832 193.923096,161.789963 
	C193.738480,161.872162 193.565536,161.693344 193.451004,161.482773 
	C193.418854,161.423645 193.558411,161.271149 193.781921,161.064560 
z"/>
<path fill="#99B3B3" opacity="1.000000" stroke="none" 
	d="
M352.354187,163.344971 
	C352.197266,163.226288 352.157379,163.044388 352.338318,162.737732 
	C352.435974,162.639297 352.584320,163.039734 352.464478,163.217255 
	C352.344666,163.394775 352.347992,163.308105 352.354187,163.344971 
z"/>
<path fill="#C4D6D5" opacity="1.000000" stroke="none" 
	d="
M287.780884,225.074890 
	C287.995361,225.159073 288.051941,225.336243 288.007629,225.773712 
	C287.761078,225.855499 287.592468,225.689606 287.483185,225.491058 
	C287.448517,225.428055 287.571930,225.278061 287.780884,225.074890 
z"/>
<path fill="#DFEBEB" opacity="1.000000" stroke="none" 
	d="
M234.954880,185.902130 
	C235.146667,183.020584 235.325272,180.593307 235.503876,178.166031 
	C235.877640,178.158981 236.251404,178.151932 236.625168,178.144882 
	C237.828156,192.078018 239.031158,206.011169 240.261414,220.260147 
	C237.615250,220.260147 235.522217,220.260147 232.510834,220.260147 
	C233.320587,208.966324 234.131149,197.661377 234.954880,185.902130 
z"/>
<path fill="#EDF1F1" opacity="1.000000" stroke="none" 
	d="
M239.030365,332.950806 
	C239.712173,321.975250 240.393982,310.999725 241.075790,300.024170 
	C241.694702,300.008148 242.313629,299.992126 242.932541,299.976105 
	C243.899658,310.684967 244.866760,321.393829 245.439209,332.527466 
	C243.039825,332.951752 241.035080,332.951294 239.030365,332.950806 
z"/>
<path fill="#9DDADA" opacity="1.000000" stroke="none" 
	d="
M238.879089,333.271149 
	C241.035080,332.951294 243.039825,332.951752 245.392822,332.947723 
	C245.858765,334.338593 245.976456,335.733948 246.164474,337.963104 
	C243.195694,336.290253 237.803528,341.086609 238.879089,333.271149 
z"/>
<path fill="#E8EEEE" opacity="1.000000" stroke="none" 
	d="
M191.124924,332.920410 
	C191.996384,320.255371 192.867828,307.590363 193.739273,294.925323 
	C194.122299,294.938721 194.505325,294.952118 194.888351,294.965485 
	C195.924988,307.325104 196.961624,319.684692 197.556671,332.591248 
	C195.118347,333.065582 193.121643,332.993011 191.124924,332.920410 
z"/>
<path fill="#96B6B5" opacity="1.000000" stroke="none" 
	d="
M190.998260,333.342041 
	C193.121643,332.993011 195.118347,333.065582 197.535248,333.042542 
	C198.145416,334.352783 198.335434,335.758667 198.618210,337.851013 
	C195.411209,336.692200 190.401688,340.987976 190.998260,333.342041 
z"/>
<path fill="#A4E6E4" opacity="1.000000" stroke="none" 
	d="
M99.375092,216.927536 
	C99.251244,215.991577 99.543510,214.420425 99.950424,214.390152 
	C104.613419,214.043198 109.293739,213.876648 113.969833,213.867859 
	C114.308792,213.867218 114.650757,215.468033 114.980545,216.702545 
	C109.928001,217.056580 104.886230,217.032318 99.375092,216.927536 
z"/>
<path fill="#EAF6F7" opacity="1.000000" stroke="none" 
	d="
M122.343719,186.528503 
	C120.078804,185.654968 117.938698,184.354202 115.458382,182.998062 
	C116.226639,181.496338 117.335106,180.050003 118.443573,178.603668 
	C119.721230,179.953812 121.213257,181.167770 122.191605,182.708023 
	C122.730049,183.555740 122.404533,184.952225 122.343719,186.528503 
z"/>
<path fill="#B0E2DF" opacity="1.000000" stroke="none" 
	d="
M115.485054,229.278412 
	C117.802612,228.931885 120.017624,228.969864 122.655884,228.988602 
	C122.600502,230.247269 122.121872,231.525208 121.598526,232.922501 
	C119.013031,232.783554 115.546753,234.511261 115.485054,229.278412 
z"/>
<path fill="#E4F5F5" opacity="1.000000" stroke="none" 
	d="
M151.049377,304.516296 
	C148.868546,303.679901 146.599884,302.414154 143.954437,301.173340 
	C142.343140,298.165527 143.029907,296.099304 146.545273,295.711761 
	C149.770615,295.356171 150.966278,297.148407 150.887054,300.149017 
	C150.852432,301.460114 150.933167,302.774200 151.049377,304.516296 
z"/>
<path fill="#B0E2DF" opacity="1.000000" stroke="none" 
	d="
M143.949188,345.336884 
	C146.318039,345.241699 148.595001,345.526398 151.238922,345.861969 
	C150.336121,347.795410 149.066345,349.677948 147.796585,351.560455 
	C147.176788,351.402008 146.556992,351.243591 145.937195,351.085144 
	C145.243896,349.295685 144.550598,347.506226 143.949188,345.336884 
z"/>
<path fill="#FDFEFE" opacity="1.000000" stroke="none" 
	d="
M142.081940,327.634399 
	C141.961746,327.688721 141.827087,327.757874 141.876953,327.719543 
	C142.061447,327.612030 142.067490,327.649200 142.081940,327.634399 
z"/>
</svg>