<?xml version="1.0" encoding="UTF-8"?>
<svg version="1.1" xmlns="http://www.w3.org/2000/svg" width="400" height="400">
<path d="M0 0 C0.33 -0.33 0.66 -0.66 1 -1 C8.04453255 -1.4390071 14.31613875 -1.22795375 21 1 C21.9075 0.938125 22.815 0.87625 23.75 0.8125 C24.4925 0.874375 25.235 0.93625 26 1 C28.8759466 4.76085324 29.36379457 7.51623302 29.25 12.1875 C29.22679687 13.321875 29.20359375 14.45625 29.1796875 15.625 C28.97482437 19.472864 28.58487687 23.26266925 28.0234375 27.07421875 C28.01570312 27.70972656 28.00796875 28.34523437 28 29 C28.99 29.99 28.99 29.99 30 31 C30.77358426 35.49758289 30.5947621 39.03607522 28.1875 42.9375 C27.465625 43.948125 26.74375 44.95875 26 46 C25.44974753 47.6507574 24.95317517 49.31999701 24.5 51 C23.30402702 55.37422162 21.74215 58.40683794 19 62 C20.27875 62.061875 21.5575 62.12375 22.875 62.1875 C33.12024452 63.18560405 43.29627087 66.67786344 53 70 C53.6509259 68.75264433 54.29551669 67.50198168 54.9375 66.25 C55.29714844 65.55390625 55.65679687 64.8578125 56.02734375 64.140625 C57.83583772 60.16048567 58.12723509 56.62862148 58.17578125 52.2734375 C58.19962891 51.15839844 58.22347656 50.04335937 58.24804688 48.89453125 C58.29058313 46.57179384 58.32206548 44.24882431 58.34179688 41.92578125 C58.59565441 31.6415991 60.77897375 23.4416745 67.9375 15.8203125 C76.43320001 8.32221363 85.10807515 5.30016227 96.32421875 5.62109375 C102.94378684 6.30345093 106.14157918 9.18381602 110.75 13.6875 C113.79908299 17.6254682 115.3541502 22.34748603 117 27 C118.485 26.01 118.485 26.01 120 25 C120.99 25 121.98 25 123 25 C122.57938167 28.99587418 122.14620565 32.53558206 120.9375 36.375 C120.1073752 39.58481589 119.95251846 41.6355436 120.0625 44.875 C120.21651952 52.65890959 117.99375013 58.08797764 113 64 C114.02738281 64.42410156 115.05476563 64.84820312 116.11328125 65.28515625 C138.99947559 74.894033 156.61541932 89.15685622 166.55859375 112.40625 C170.51529741 122.2712022 173.31318977 132.95358181 170.2734375 143.52734375 C167.81973296 148.88360122 164.46873959 151.97135851 159 154.25 C156.16740905 154.95814774 153.89552653 155.05869311 151 155 C151.01160156 155.71542969 151.02320313 156.43085938 151.03515625 157.16796875 C151.20823191 176.2804666 151.20823191 176.2804666 149 184 C148.34 184 147.68 184 147 184 C146.85026494 174.28385823 147.30386731 164.68370295 148 155 C146.27136719 154.82984375 146.27136719 154.82984375 144.5078125 154.65625 C140.09025388 154.09799775 136.07611369 152.94452276 131.875 151.5 C131.11944824 151.24589355 130.36389648 150.99178711 129.58544922 150.72998047 C122.01021534 148.12010321 114.62252164 145.0543716 107.26123047 141.89648438 C106.37322754 141.52072266 105.48522461 141.14496094 104.5703125 140.7578125 C103.78414551 140.4189502 102.99797852 140.08008789 102.18798828 139.73095703 C99.75216195 138.78875821 99.75216195 138.78875821 96 139 C95.6596875 140.918125 95.6596875 140.918125 95.3125 142.875 C93.00240871 152.95395997 88.44503938 159.96989482 80 166 C76.67521742 167.89896236 73.89284337 169 70 169 C70.16298584 169.55268555 70.32597168 170.10537109 70.49389648 170.67480469 C71.05544477 173.25473034 71.1130026 175.56355224 71.09765625 178.203125 C71.09443359 179.1828125 71.09121094 180.1625 71.08789062 181.171875 C71.07951172 182.18765625 71.07113281 183.2034375 71.0625 184.25 C71.05798828 185.28125 71.05347656 186.3125 71.04882812 187.375 C71.03706088 189.91672573 71.02062011 192.45833319 71 195 C70.34 195 69.68 195 69 195 C68.66526866 191.20845538 68.33245159 187.41674514 68 183.625 C67.85691406 182.00464844 67.85691406 182.00464844 67.7109375 180.3515625 C67.57558594 178.8046875 67.57558594 178.8046875 67.4375 177.2265625 C67.35371094 176.27346191 67.26992188 175.32036133 67.18359375 174.33837891 C67 172 67 172 67 170 C65.23462891 170.08701172 65.23462891 170.08701172 63.43359375 170.17578125 C40.59182737 170.9462563 16.77093996 164.99545965 -3.875 155.1953125 C-7.39508969 153.84887819 -8.5249685 153.65275702 -12 155 C-14.62498505 156.46182701 -17.11979172 158.09324844 -19.625 159.75 C-30.1586529 166.49235062 -39.66951735 170.48086914 -52 173 C-52.33 181.25 -52.66 189.5 -53 198 C-53.66 198 -54.32 198 -55 198 C-55 189.42 -55 180.84 -55 172 C-58.3 171.34 -61.6 170.68 -65 170 C-71.10300714 166.85874632 -74.77031492 163.30610194 -79 158 C-80.29470975 156.62913085 -81.62150897 155.28659163 -83 154 C-83.61875 153.38125 -84.2375 152.7625 -84.875 152.125 C-87.01676761 150.68440345 -87.01676761 150.68440345 -89.65625 151.6953125 C-92.71348149 152.88820423 -95.62516774 154.24373846 -98.55615234 155.71655273 C-111.59506521 162.22985438 -126.23685497 167.93227915 -141 168 C-141.09087891 169.50626953 -141.09087891 169.50626953 -141.18359375 171.04296875 C-141.7120263 179.70203244 -142.30404939 188.35244347 -143 197 C-143.66 197 -144.32 197 -145 197 C-145 187.76 -145 178.52 -145 169 C-148.3 168.67 -151.6 168.34 -155 168 C-160.93120874 164.94966408 -164.97207166 161.94564318 -168.078125 155.90234375 C-172.06692383 143.3443881 -168.91143046 127.83089137 -163.26953125 116.37890625 C-159.2183972 108.64934663 -154.12901623 102.20744971 -148 96 C-147.44957031 95.38898438 -146.89914063 94.77796875 -146.33203125 94.1484375 C-136.67419731 83.70366894 -123.50780103 77.33628723 -111 71 C-113.93970382 68.9805288 -113.93970382 68.9805288 -116.9375 67.375 C-121.53030381 63.81323378 -123.3583033 59.56678679 -124.75 54 C-124.8325 53.34 -124.915 52.68 -125 52 C-126.32 51.67 -127.64 51.34 -129 51 C-129.99 46.05 -129.99 46.05 -131 41 C-129.68 40.34 -128.36 39.68 -127 39 C-127.10699219 38.3709375 -127.21398437 37.741875 -127.32421875 37.09375 C-128.1692315 31.06054072 -128.36050326 26.25896938 -125 21 C-119.65643671 14.8965722 -113.93773632 11.49563225 -105.88671875 10.6875 C-99.09974427 10.43700037 -93.51847379 10.78638701 -88 15 C-83.17473515 20.07271433 -82.73506617 24.22174044 -82.76171875 30.96484375 C-83.0034751 34.04426477 -83.64572041 36.61959566 -84.5625 39.5625 C-87.31760408 48.76794255 -84.71013291 57.03440309 -82 66 C-81.45214844 65.95359375 -80.90429688 65.9071875 -80.33984375 65.859375 C-70.85080822 65.42735387 -60.74420423 67.68753159 -52.4375 72.375 C-49.17899366 74.36254788 -49.17899366 74.36254788 -46.203125 73.28515625 C-42.87049518 71.94804014 -39.58939608 70.53093804 -36.3125 69.0625 C-28.59354062 65.68904406 -20.58041405 62.30429075 -12 63 C-12 62.01 -12 61.02 -12 60 C-12.598125 59.773125 -13.19625 59.54625 -13.8125 59.3125 C-16.69202818 57.58478309 -17.58226513 56.03800329 -19 53 C-19.6875 49.1875 -19.6875 49.1875 -20 46 C-20.66 46 -21.32 46 -22 46 C-25.24859422 41.84179939 -25.6643702 38.1183544 -26 33 C-25.67 32.34 -25.34 31.68 -25 31 C-24.34 31 -23.68 31 -23 31 C-23.02356567 29.84213989 -23.02356567 29.84213989 -23.04760742 28.66088867 C-23.10989607 25.16983338 -23.14897173 21.67889491 -23.1875 18.1875 C-23.21263672 16.97255859 -23.23777344 15.75761719 -23.26367188 14.50585938 C-23.27817383 12.76079102 -23.27817383 12.76079102 -23.29296875 10.98046875 C-23.31653442 9.37014771 -23.31653442 9.37014771 -23.34057617 7.72729492 C-23 5 -23 5 -21.6340332 3.1652832 C-19.47671 1.62682457 -17.6056836 1.38131955 -15 1 C-14.29875 0.814375 -13.5975 0.62875 -12.875 0.4375 C-11 0 -11 0 -8 0 C-5.15266466 -1.42366767 -3.07246902 -0.52297345 0 0 Z M-16 19 C-16 20.98 -16 22.96 -16 25 C-15.40832031 24.77183594 -14.81664062 24.54367188 -14.20703125 24.30859375 C-6.35852373 21.45342707 -6.35852373 21.45342707 -2 23 C-1.67 23.99 -1.34 24.98 -1 26 C1.2895393 26.33592508 1.2895393 26.33592508 4 26 C4.804375 25.34 5.60875 24.68 6.4375 24 C9 22 9 22 12 21.5625 C15.32304882 22.04711129 17.27589324 23.07710111 20 25 C20 22.69 20 20.38 20 18 C14.98008701 16.68450917 9.96300558 16.81612967 4.8125 16.8125 C3.91724609 16.80025391 3.02199219 16.78800781 2.09960938 16.77539062 C-4.15508438 16.76184255 -9.91882372 17.55014506 -16 19 Z M-9 24 C-8 26 -8 26 -8 26 Z M99.9375 25.375 C98.93589844 25.63023437 97.93429687 25.88546875 96.90234375 26.1484375 C94.18208011 26.94657676 91.61016537 27.89846232 89 29 C89 29.99 89 30.98 89 32 C91.39370625 32.53293837 93.78908438 33.0515817 96.1875 33.5625 C97.19780273 33.78969727 97.19780273 33.78969727 98.22851562 34.02148438 C102.10504688 34.83461044 105.22607278 35.34783115 109 34 C110.6273855 32.64466636 110.6273855 32.64466636 111.8125 30.9375 C112.8953125 29.4834375 112.8953125 29.4834375 114 28 C113.34 26.68 112.68 25.36 112 24 C107.71914476 23.85964409 104.07821884 24.29574167 99.9375 25.375 Z M10 25 C10.33 25.66 10.66 26.32 11 27 C11.33 26.34 11.66 25.68 12 25 C11.34 25 10.68 25 10 25 Z M-10 26 C-11.62750037 28.32323453 -11.62750037 28.32323453 -13 31 C-12.67 31.99 -12.34 32.98 -12 34 C-10.93224776 32.03533587 -9.93446535 30.03144641 -9 28 C-9.33 27.34 -9.66 26.68 -10 26 Z M9 27 C8.01 28.485 8.01 28.485 7 30 C7.33 30.99 7.66 31.98 8 33 C8.66 31.02 9.32 29.04 10 27 C9.67 27 9.34 27 9 27 Z M16 27 C14.35 29.64 12.7 32.28 11 35 C11.99 35.495 11.99 35.495 13 36 C13.680625 34.88625 14.36125 33.7725 15.0625 32.625 C15.44535156 31.99851562 15.82820312 31.37203125 16.22265625 30.7265625 C16.47917969 30.15679687 16.73570312 29.58703125 17 29 C16.67 28.34 16.34 27.68 16 27 Z M-125 32 C-125 33.98 -125 35.96 -125 38 C-124.47535156 37.89042969 -123.95070312 37.78085938 -123.41015625 37.66796875 C-114.97059305 35.94073701 -106.48614616 34.47670757 -98 33 C-98.33 31.35 -98.66 29.7 -99 28 C-108.64062772 27.53162942 -116.09349655 27.85227282 -125 32 Z M2 28 C2 31.96 2 35.92 2 40 C2.66 40 3.32 40 4 40 C4 40.66 4 41.32 4 42 C2.35 42 0.7 42 -1 42 C-1.33 40.68 -1.66 39.36 -2 38 C-2.515625 38.350625 -3.03125 38.70125 -3.5625 39.0625 C-7.13551594 40.4367369 -9.34460235 40.04439933 -13 39 C-15.375 35.9375 -15.375 35.9375 -17 33 C-17.33 33 -17.66 33 -18 33 C-18.33640082 40.36344026 -18.54140182 47.33547216 -15 54 C-14.154375 54.763125 -13.30875 55.52625 -12.4375 56.3125 C-9.61532471 59.42412916 -9.68624392 60.3903873 -9.3125 64.4375 C-8.29698808 72.8442636 -3.14166174 78.58715252 2 85 C9.07669978 81.91170338 13.44212449 75.26827708 16.30078125 68.30859375 C17.24364069 65.19557739 17.53010942 62.18817305 17.62890625 58.9453125 C18.10325001 56.45875258 19.16674442 55.68511372 21 54 C23.67769885 47.51715015 23.1872442 40.91763288 23 34 C22.34 33.67 21.68 33.34 21 33 C20.38125 33.969375 19.7625 34.93875 19.125 35.9375 C17 39 17 39 15 40 C11.54335922 40.37572182 9.68079241 40.45386161 6.75 38.5 C4.36437703 35.09196718 3.81425866 32.07129331 3 28 C2.67 28 2.34 28 2 28 Z M-6 30 C-7.60907108 32.37612865 -7.60907108 32.37612865 -9 35 C-8.67 35.66 -8.34 36.32 -8 37 C-6.39092892 34.62387135 -6.39092892 34.62387135 -5 32 C-5.33 31.34 -5.66 30.68 -6 30 Z M117 31 C116.34 33.31 115.68 35.62 115 38 C115.66 38 116.32 38 117 38 C117.33 35.69 117.66 33.38 118 31 C117.67 31 117.34 31 117 31 Z M26 33 C26 34.98 26 36.96 26 39 C28.2773501 36.18490007 28.2773501 36.18490007 28 33 C27.34 33 26.68 33 26 33 Z M-23 34 C-22.55296014 38.47883696 -22.55296014 38.47883696 -20 42 C-20.33 39.36 -20.66 36.72 -21 34 C-21.66 34 -22.32 34 -23 34 Z M112 34 C113 36 113 36 113 36 Z M-102 36 C-102.33 39.3 -102.66 42.6 -103 46 C-106.46969834 47.58614781 -109.1737606 48.50345255 -113 48 C-114.8125 46.5 -114.8125 46.5 -116 45 C-115.42547254 48.93075644 -115.42547254 48.93075644 -113 52 C-114.32 52.33 -115.64 52.66 -117 53 C-117.33 52.01 -117.66 51.02 -118 50 C-119.98 50.99 -119.98 50.99 -122 52 C-121.6136243 57.28046793 -119.88872054 61.3990099 -116 65 C-114.23462891 65.57814453 -114.23462891 65.57814453 -112.43359375 66.16796875 C-109 68 -109 68 -108.18457031 69.81225586 C-107.70737039 72.08665225 -107.41078741 74.31197149 -107.1875 76.625 C-106.85009836 79.43438505 -106.45597762 82.20529844 -106 85 C-105.34 85.33 -104.68 85.66 -104 86 C-92.58841124 78.98737767 -92.58841124 78.98737767 -84 69 C-83.86793707 65.89652117 -84.57200796 64.01620673 -85.76171875 61.19140625 C-88.72501049 53.54466806 -88.26745959 46.07331734 -88 38 C-91.51716303 38 -92.37121748 38.82445585 -95 41 C-95.4125 40.175 -95.825 39.35 -96.25 38.5 C-96.8275 37.675 -97.405 36.85 -98 36 C-99.32 36 -100.64 36 -102 36 Z M97 36 C98 38 98 38 98 38 Z M-106 37 C-107.62750037 39.32323453 -107.62750037 39.32323453 -109 42 C-108.67 42.99 -108.34 43.98 -108 45 C-106.93224776 43.03533587 -105.93446535 41.03144641 -105 39 C-105.33 38.34 -105.66 37.68 -106 37 Z M102 37 C101.67 38.32 101.34 39.64 101 41 C101.66 39.68 102.32 38.36 103 37 C102.67 37 102.34 37 102 37 Z M-112 38 C-111 40 -111 40 -111 40 Z M-118 40 C-118 40.99 -118 41.98 -118 43 C-117.34 43 -116.68 43 -116 43 C-116.33 42.01 -116.66 41.02 -117 40 C-117.33 40 -117.66 40 -118 40 Z M-113 40 C-112 42 -112 42 -112 42 Z M89 38 C89 38.66 89 39.32 89 40 C87.02 40 85.04 40 83 40 C82.67 40.66 82.34 41.32 82 42 C82.52400391 42.70576172 82.52400391 42.70576172 83.05859375 43.42578125 C83.74115234 44.35970703 83.74115234 44.35970703 84.4375 45.3125 C84.88996094 45.92738281 85.34242188 46.54226562 85.80859375 47.17578125 C87.98055938 50.50138109 88.0238203 53.22215812 88.0625 57.0625 C88.6611189 64.15239263 92.21927481 68.00496644 97 73 C97.72703125 73.78117187 98.4540625 74.56234375 99.203125 75.3671875 C103.04637404 79.51796943 103.04637404 79.51796943 108 82 C109.04332314 78.76987155 109.08382932 75.68645299 109.13867188 72.31323242 C109.38260985 61.69339267 109.38260985 61.69339267 113 57.6875 C113.53625 57.21699219 114.0725 56.74648437 114.625 56.26171875 C116.28997576 54.93872813 116.28997576 54.93872813 117 52 C117.0685495 50.10529184 117.08480372 48.2083166 117.0625 46.3125 C117.05347656 45.31863281 117.04445313 44.32476562 117.03515625 43.30078125 C117.02355469 42.54152344 117.01195312 41.78226563 117 41 C115.35 41 113.7 41 112 41 C111.67 41.99 111.34 42.98 111 44 C110.01 44.495 110.01 44.495 109 45 C109.33 44.01 109.66 43.02 110 42 C108.62831762 39.80961577 108.62831762 39.80961577 107 38 C106.34 39.98 105.68 41.96 105 44 C98.08004293 44.88339877 94.40577841 42.11868832 89 38 Z M-122 41 C-123.42944945 43.35438733 -124.08661261 44.48032433 -123.625 47.25 C-123.41875 47.8275 -123.2125 48.405 -123 49 C-121.12456646 45.13236554 -121.12456646 45.13236554 -122 41 Z M-127 42 C-126 45 -126 45 -126 45 Z M-59 86 C-59.70253906 86.52851563 -60.40507812 87.05703125 -61.12890625 87.6015625 C-71.6815902 95.98588674 -79.89415478 109.69192661 -82 123 C-82.03824623 125.33301986 -82.04574284 127.66711508 -82 130 C-75.01303166 127.72394213 -68.12564732 125.23368562 -61.26147461 122.61206055 C-57.54094712 121.21272942 -53.91283578 119.9028004 -50.01953125 119.078125 C-46.67959943 118.33843388 -43.96984802 117.70240107 -41 116 C-39.27273487 112.99978762 -38.43688412 110.35044317 -37.7109375 106.97265625 C-36.95325981 103.80456436 -35.87004247 101.65318209 -34 99 C-33.34 98.67 -32.68 98.34 -32 98 C-32.433125 98.89203125 -32.86625 99.7840625 -33.3125 100.703125 C-33.869375 101.87359375 -34.42625 103.0440625 -35 104.25 C-35.556875 105.41015625 -36.11375 106.5703125 -36.6875 107.765625 C-38.25067787 111.03598598 -38.25067787 111.03598598 -38 115 C-33.75628502 114.49526254 -29.53755548 113.93856747 -25.3203125 113.24609375 C0.6101386 109.1165779 25.42814988 107.95209992 48 123 C47.47650497 116.3801072 46.15274936 110.68234447 43.9375 104.4375 C43.51500977 103.21063477 43.51500977 103.21063477 43.08398438 101.95898438 C42.39764559 99.96976517 41.7000155 97.9844476 41 96 C44.35435148 97.67717574 44.79037027 101.49358909 45.9375 104.875 C46.20256348 105.64062256 46.46762695 106.40624512 46.74072266 107.19506836 C48.74768832 113.06732407 50.48511672 118.98168327 52 125 C52.5347998 124.9285376 53.06959961 124.8570752 53.62060547 124.78344727 C61.78630453 123.82094722 69.91939011 123.88755773 78.125 123.9375 C79.57291511 123.94252748 81.02083192 123.94708817 82.46875 123.95117188 C85.97920259 123.96207295 89.48959007 123.97926798 93 124 C91.93877305 117.59663678 90.51725448 111.91572856 87.5625 106.125 C87.21469482 105.44300537 86.86688965 104.76101074 86.50854492 104.05834961 C77.24059727 86.76722124 59.99264061 75.16963156 41.57861328 69.21728516 C30.48678782 65.79556947 30.48678782 65.79556947 19 65 C18.5359375 66.8871875 18.5359375 66.8871875 18.0625 68.8125 C15.39502567 76.86597512 9.47406311 84.01207234 2 88 C-4.56827182 81.39286267 -9.04892952 73.85321144 -12 65 C-27.95055162 65 -47.12527396 76.318443 -59 86 Z M60 74 C62.43288235 75.95838402 64.87065718 77.90192217 67.359375 79.7890625 C75.50186884 86.0422849 82.66048911 93.17819941 88 102 C88.58523438 101.855625 89.17046875 101.71125 89.7734375 101.5625 C108.24931019 97.56771671 124.4389732 99.99123298 141 109 C141.66 109.33 142.32 109.66 143 110 C141.04164852 102.55826439 136.66218707 96.03996772 132 90 C136.07901598 91.35967199 137.31810519 94.08082957 139.5 97.5625 C139.89058594 98.15869141 140.28117187 98.75488281 140.68359375 99.36914062 C142.78606316 102.67150419 144.19791823 105.55864755 145.23828125 109.33984375 C146.10260208 111.79710369 146.46761247 112.73366369 148.82373047 113.91235352 C151.12111289 114.46375606 153.33632013 114.77240425 155.6875 115 C156.48478516 115.10699219 157.28207031 115.21398437 158.10351562 115.32421875 C160.06493008 115.58260868 162.03220828 115.79577513 164 116 C162.41930818 105.87993858 155.56076084 97.5202397 149 90 C148.49210937 89.39671875 147.98421875 88.7934375 147.4609375 88.171875 C138.74599843 78.60778802 125.9555821 71.57398631 114 67 C113.34 67 112.68 67 112 67 C111.34 72.94 110.68 78.88 110 85 C100.95384615 80.47692308 100.95384615 80.47692308 97.3125 76.6875 C96.5596875 75.90890625 95.806875 75.1303125 95.03125 74.328125 C93.23608161 72.27058584 91.77087523 70.23724555 90.3125 67.9375 C89.549375 66.968125 88.78625 65.99875 88 65 C78.14555556 63.9507498 67.84281961 68.35316988 60 74 Z M-85.94140625 74.62890625 C-88.54640142 77.62934661 -91.4651856 79.67263509 -94.75 81.875 C-95.31759033 82.2558374 -95.88518066 82.6366748 -96.4699707 83.02905273 C-97.9745042 84.02766864 -99.48688719 85.01443193 -101 86 C-101.99 86.66 -102.98 87.32 -104 88 C-104.99 88 -105.98 88 -107 88 C-107.99 83.38 -108.98 78.76 -110 74 C-132.4530386 84.43920496 -153.3949237 98.9077171 -163.125 122.6875 C-164.31517519 125.96785153 -164.31517519 125.96785153 -163 129 C-162.35933594 128.72285156 -161.71867187 128.44570312 -161.05859375 128.16015625 C-153.61561539 125.04320108 -153.61561539 125.04320108 -149.4375 124.75 C-144.75839841 123.72910511 -142.41012971 121.18003754 -139.015625 117.91015625 C-137 116 -137 116 -134 114 C-132.67707373 111.63742932 -131.46974043 109.31511031 -130.3125 106.875 C-129.99216797 106.21628906 -129.67183594 105.55757812 -129.34179688 104.87890625 C-128.55392096 103.25611706 -127.77598623 101.62850808 -127 100 C-126.34 100 -125.68 100 -125 100 C-125.3609375 100.62648438 -125.721875 101.25296875 -126.09375 101.8984375 C-126.5578125 102.71570313 -127.021875 103.53296875 -127.5 104.375 C-127.9640625 105.18710938 -128.428125 105.99921875 -128.90625 106.8359375 C-130.15035859 108.89336874 -130.15035859 108.89336874 -130 111 C-129.16597656 110.79503906 -128.33195312 110.59007812 -127.47265625 110.37890625 C-111.04320346 106.44562374 -95.74747049 106.96825264 -79 108 C-78.59910156 107.32195312 -78.19820313 106.64390625 -77.78515625 105.9453125 C-71.09007025 94.98419665 -62.75723726 85.1714915 -52 78 C-52 77.34 -52 76.68 -52 76 C-70.06365685 66.8413909 -70.06365685 66.8413909 -85.94140625 74.62890625 Z M90 104 C90.19335938 104.6290625 90.38671875 105.258125 90.5859375 105.90625 C91.40540448 108.59994343 92.20384947 111.29933251 93 114 C93.37125 115.2375 93.7425 116.475 94.125 117.75 C95.59902788 123.69524578 95.67482809 129.90730533 96 136 C96.64324219 135.5875 97.28648437 135.175 97.94921875 134.75 C99.87588292 133.51869394 101.80588202 132.29259832 103.73828125 131.0703125 C105.8905313 129.70421367 108.03404375 128.32423775 110.16796875 126.9296875 C120.48174994 120.32183256 130.84822289 115.83785342 143 114 C139.5708359 111.10370418 136.19941697 108.88358753 132.1875 106.875 C131.21167969 106.37742187 130.23585938 105.87984375 129.23046875 105.3671875 C122.06668581 102.33535675 115.68344476 101.6801505 108 101.75 C107.14921875 101.74226563 106.2984375 101.73453125 105.421875 101.7265625 C99.95364045 101.74333623 95.2506137 102.468571 90 104 Z M-139 120 C-139.66 120.99 -140.32 121.98 -141 123 C-139.43765625 123.31130859 -139.43765625 123.31130859 -137.84375 123.62890625 C-120.59579469 127.25428558 -106.61887425 134.30745237 -92 144 C-91.00871094 144.65097656 -90.01742187 145.30195313 -88.99609375 145.97265625 C-86.98795323 147.30198871 -84.98833431 148.64130489 -83 150 C-83.23976563 148.27716797 -83.23976563 148.27716797 -83.484375 146.51953125 C-84.016025 142.23333882 -84.22963402 138.00459029 -84.25 133.6875 C-84.25394775 132.95055908 -84.25789551 132.21361816 -84.26196289 131.4543457 C-84.20471262 126.04980197 -83.36812947 121.32221544 -81.55859375 116.19921875 C-80.92446069 113.70259698 -81.30119721 112.43321155 -82 110 C-101.58077334 107.56969211 -122.89921938 106.70606044 -139 120 Z M-68 127 C-68.78697266 127.29084473 -69.57394531 127.58168945 -70.38476562 127.88134766 C-77.71975631 130.04808827 -77.71975631 130.04808827 -82.88671875 134.8515625 C-83.36790556 143.97751924 -79.93348865 152.87959832 -74.43359375 160.0390625 C-69.45480896 165.46836378 -64.13059747 168.4647392 -56.8046875 169.4140625 C-42.77420542 170.01043646 -31.26762537 164.0542007 -19.63641357 156.92816162 C-16.49246742 155.00505512 -13.32026754 153.12933795 -10.15234375 151.24609375 C-9.5311969 150.87546814 -8.91005005 150.50484253 -8.27008057 150.12298584 C8.89410543 139.8957988 26.46466362 131.60946139 46 127 C43.61058226 120.95464254 37.52562562 118.67600763 31.9375 116.01953125 C1.31296724 104.23626376 -39.0056041 116.21655695 -68 127 Z M102 135 C104.43694139 137.82340995 106.86191001 138.96922194 110.3046875 140.33984375 C111.3568042 140.76152832 112.4089209 141.18321289 113.49291992 141.61767578 C114.60900635 142.05321777 115.72509277 142.48875977 116.875 142.9375 C118.58103394 143.60628174 118.58103394 143.60628174 120.3215332 144.28857422 C123.54237206 145.54018717 126.76914691 146.774504 130 148 C130.73299316 148.28149902 131.46598633 148.56299805 132.22119141 148.85302734 C140.72041915 152.05810042 150.44381088 154.1524507 159.33203125 151.234375 C163.91948078 148.8006123 166.38840121 145.83479636 168 141 C168.12162188 138.56473397 168.17544129 136.12577133 168.1875 133.6875 C168.20167969 132.39199219 168.21585937 131.09648437 168.23046875 129.76171875 C168.00247207 126.0403492 167.61270013 123.35815302 166 120 C146.46972682 106.24421437 117.47380914 122.31339872 102 135 Z M-5 150 C-5 150.66 -5 151.32 -5 152 C9.18136204 157.27105546 23.29368497 162.39536254 38 166 C38.97324219 166.24492187 39.94648438 166.48984375 40.94921875 166.7421875 C52.85731166 169.34096413 67.0376021 169.86653431 78 164 C86.44660677 158.03700021 91.41421622 151.38918297 93.69140625 141.29296875 C94.3278102 136.5642457 94.32720271 131.7558534 94 127 C90.79859504 123.79859504 81.49900347 124.86804638 77.1875 124.75 C47.77279979 125.06181661 20.34087285 135.81961519 -5 150 Z M-166 133 C-168.25365544 140.24046747 -167.78108298 148.93705306 -165.11328125 155.9921875 C-162.23930729 161.17542475 -157.53124113 164.19421246 -152 166 C-130.59220288 168.75574624 -108.9585705 157.51921466 -90 149 C-91.6396721 147.63360658 -93.31704059 146.31270834 -95 145 C-95.62390625 144.50242187 -96.2478125 144.00484375 -96.890625 143.4921875 C-113.76665111 130.80566437 -147.46621245 115.01132385 -166 133 Z " fill="#000000" transform="translate(200,125)"/>
<path d="M0 0 C0.66 0 1.32 0 2 0 C1.55077798 5.07525299 -0.97013303 7.99702108 -4.0625 11.8125 C-4.53494141 12.40998047 -5.00738281 13.00746094 -5.49414062 13.62304688 C-6.65472506 15.08843126 -7.82628832 16.54510876 -9 18 C-6.03 18 -3.06 18 0 18 C0 22 0 22 -1.35766602 23.47631836 C-1.98342529 23.92628174 -2.60918457 24.37624512 -3.25390625 24.83984375 C-3.94419922 25.34580078 -4.63449219 25.85175781 -5.34570312 26.37304688 C-6.07724609 26.88931641 -6.80878906 27.40558594 -7.5625 27.9375 C-8.26697266 28.44990234 -8.97144531 28.96230469 -9.69726562 29.49023438 C-11.78869844 31.00724601 -13.89237428 32.50559182 -16 34 C-17.34271511 34.95926153 -18.68518389 35.91886799 -20.02734375 36.87890625 C-21.00832031 37.57886719 -21.98929687 38.27882812 -23 39 C-23.495 37.515 -23.495 37.515 -24 36 C-21.89746067 34.20639298 -19.79305667 32.41505881 -17.6875 30.625 C-17.09259766 30.11710937 -16.49769531 29.60921875 -15.88476562 29.0859375 C-15.30791016 28.59609375 -14.73105469 28.10625 -14.13671875 27.6015625 C-13.60780029 27.15119629 -13.07888184 26.70083008 -12.53393555 26.23681641 C-11.08837533 25.07125727 -9.54505544 24.03003696 -8 23 C-10.64 23 -13.28 23 -16 23 C-15.47976639 18.80811765 -12.93114356 16.24038258 -10.25 13.1875 C-7.34272013 9.80737419 -4.50752511 6.44331259 -2 2.75 C-1.34 1.8425 -0.68 0.935 0 0 Z " fill="#000000" transform="translate(362,133)"/>
<path d="M0 0 C3.9138157 1.31819487 6.18755968 2.86977144 9 5.875 C11.8475474 8.84119521 14.70144958 11.52608718 18 14 C18.33 11.03 18.66 8.06 19 5 C23.19339686 6.04834922 23.66393669 6.33135357 26.1640625 9.4921875 C26.72867188 10.19730469 27.29328125 10.90242187 27.875 11.62890625 C28.4525 12.37011719 29.03 13.11132812 29.625 13.875 C30.21023437 14.60847656 30.79546875 15.34195313 31.3984375 16.09765625 C38 24.41017417 38 24.41017417 38 28 C37.34 28 36.68 28 36 28 C34.13764216 25.76221447 32.36802147 23.51535104 30.625 21.1875 C26.43322262 15.47723612 26.43322262 15.47723612 21 11 C21.33 13.97 21.66 16.94 22 20 C17.44901225 18.86225306 14.99155758 16.75189498 11.5625 13.75 C11.00240234 13.27175781 10.44230469 12.79351562 9.86523438 12.30078125 C6.43214198 9.34439596 3.02920444 6.37459037 0 3 C0 2.01 0 1.02 0 0 Z " fill="#000000" transform="translate(15,155)"/>
<path d="M0 0 C0.99 0 1.98 0 3 0 C2.37987481 2.73035701 1.75409113 5.45920764 1.125 8.1875 C0.95097656 8.95642578 0.77695312 9.72535156 0.59765625 10.51757812 C-0.32545044 14.50061254 -1.33072186 18.24788383 -3 22 C-0.03 21.67 2.94 21.34 6 21 C2.87910222 27.56097829 -0.43673083 33.96613823 -4.1875 40.1875 C-4.84105469 41.27417969 -5.49460938 42.36085937 -6.16796875 43.48046875 C-8 46 -8 46 -11 47 C-9.48968084 41.73877829 -7.09625809 37.32767414 -4.375 32.625 C-3.95476562 31.88894531 -3.53453125 31.15289062 -3.1015625 30.39453125 C-2.07247236 28.5936235 -1.03689244 26.79642682 0 25 C-1.98 25.33 -3.96 25.66 -6 26 C-7.44167718 23.11664564 -6.48298974 21.60996581 -5.56640625 18.5546875 C-5.24736328 17.47832031 -4.92832031 16.40195313 -4.59960938 15.29296875 C-4.25736328 14.16503906 -3.91511719 13.03710938 -3.5625 11.875 C-3.22412109 10.73933594 -2.88574219 9.60367188 -2.53710938 8.43359375 C-1.69787602 5.62038897 -0.851913 2.80938605 0 0 Z " fill="#000000" transform="translate(256,89)"/>
<path d="M0 0 C0.66 0 1.32 0 2 0 C2.50744423 1.89385437 3.00564574 3.79018666 3.5 5.6875 C3.7784375 6.74324219 4.056875 7.79898438 4.34375 8.88671875 C4.9391715 11.71142672 5.12786492 14.12836708 5 17 C6.32 15.68 7.64 14.36 9 13 C9.99 13.33 10.98 13.66 12 14 C12.89135742 15.79418945 12.89135742 15.79418945 13.60546875 18.11328125 C13.86650391 18.94923828 14.12753906 19.78519531 14.39648438 20.64648438 C14.65751953 21.52626953 14.91855469 22.40605469 15.1875 23.3125 C15.46013672 24.18068359 15.73277344 25.04886719 16.01367188 25.94335938 C17.21680164 29.87237714 18 32.83919085 18 37 C17.34 37 16.68 37 16 37 C14.02 31.39 12.04 25.78 10 20 C7.53721199 20 6.14775881 20.85452863 4 22 C1.39842747 14.93858883 -0.39787068 7.5595429 0 0 Z " fill="#000000" transform="translate(130,96)"/>
<path d="M0 0 C0.99 0 1.98 0 3 0 C2.41279381 3.88529692 1.25117945 6.69534474 -0.72265625 10.08203125 C-1.26083984 11.01337891 -1.79902344 11.94472656 -2.35351562 12.90429688 C-2.91748047 13.86400391 -3.48144531 14.82371094 -4.0625 15.8125 C-4.63033203 16.79154297 -5.19816406 17.77058594 -5.78320312 18.77929688 C-7.18254827 21.18993348 -8.58829929 23.5965851 -10 26 C-10.66 26 -11.32 26 -12 26 C-11.59328021 19.72191501 -8.48585472 14.96057218 -5.4375 9.625 C-4.91736328 8.69816406 -4.39722656 7.77132812 -3.86132812 6.81640625 C-2.58212166 4.53965346 -1.29487762 2.26786477 0 0 Z " fill="#000000" transform="translate(322,88)"/>
<path d="M0 0 C0 0.66 0 1.32 0 2 C-1.6965332 3.23681641 -1.6965332 3.23681641 -4.05078125 4.6015625 C-4.89447266 5.09140625 -5.73816406 5.58125 -6.60742188 6.0859375 C-7.50009766 6.59382812 -8.39277344 7.10171875 -9.3125 7.625 C-10.19357422 8.140625 -11.07464844 8.65625 -11.98242188 9.1875 C-18.61395296 13 -18.61395296 13 -22 13 C-20.8526419 9.55792571 -20.31887603 9.29140259 -17.32421875 7.51953125 C-16.57849609 7.07802734 -15.83277344 6.63652344 -15.06445312 6.18164062 C-13.88786133 5.50391602 -13.88786133 5.50391602 -12.6875 4.8125 C-11.52831055 4.11737305 -11.52831055 4.11737305 -10.34570312 3.40820312 C-4.50808864 0 -4.50808864 0 0 0 Z " fill="#000000" transform="translate(391,194)"/>
<path d="M0 0 C5.19228855 0.57229633 9.3103703 3.0982161 13.8125 5.5625 C14.60076172 5.98724609 15.38902344 6.41199219 16.20117188 6.84960938 C18.1373378 7.89396554 20.07005367 8.9442077 22 10 C21.34 10.66 20.68 11.32 20 12 C12.90845946 9.22247995 6.22608645 6.43009998 0 2 C0 1.34 0 0.68 0 0 Z " fill="#000000" transform="translate(9,211)"/>
<path d="M0 0 C0.99 0.33 1.98 0.66 3 1 C3.97159933 8.68604474 4.10920422 16.25863399 4 24 C3.01 24 2.02 24 1 24 C0.67 16.08 0.34 8.16 0 0 Z " fill="#000000" transform="translate(191,77)"/>
<path d="M0 0 C0.66 0 1.32 0 2 0 C3.50647598 2.95507906 5.00406365 5.91457341 6.5 8.875 C6.92925781 9.71675781 7.35851562 10.55851562 7.80078125 11.42578125 C8.20683594 12.23144531 8.61289063 13.03710938 9.03125 13.8671875 C9.40830078 14.61081543 9.78535156 15.35444336 10.17382812 16.12060547 C11 18 11 18 11 20 C6.62033341 18.49812318 5.35160234 15.6527027 3.25 11.6875 C2.63640625 10.55699219 2.0228125 9.42648438 1.390625 8.26171875 C0.06207826 5.14560492 -0.32434888 3.32457607 0 0 Z " fill="#000000" transform="translate(60,106)"/>
<path d="M0 0 C0.99 0.33 1.98 0.66 3 1 C2.67 2.32 2.34 3.64 2 5 C-1.96 5.66 -5.92 6.32 -10 7 C-10 6.01 -10 5.02 -10 4 C-9.04287109 3.81824219 -9.04287109 3.81824219 -8.06640625 3.6328125 C-7.24011719 3.46523437 -6.41382813 3.29765625 -5.5625 3.125 C-4.73878906 2.96257812 -3.91507813 2.80015625 -3.06640625 2.6328125 C-2.38449219 2.42398438 -1.70257813 2.21515625 -1 2 C-0.67 1.34 -0.34 0.68 0 0 Z " fill="#000000" transform="translate(210,168)"/>
<path d="M0 0 C0.66 0 1.32 0 2 0 C2.33 1.32 2.66 2.64 3 4 C0.06171403 6.50298434 -2.17902761 7.46930939 -6 8 C-5.67 7.01 -5.34 6.02 -5 5 C-3.66666667 4.33333333 -2.33333333 3.66666667 -1 3 C-0.67 2.01 -0.34 1.02 0 0 Z " fill="#000000" transform="translate(95,174)"/>
<path d="M0 0 C0.66 0 1.32 0 2 0 C2 0.99 2 1.98 2 3 C3.65 3.33 5.3 3.66 7 4 C7 4.66 7 5.32 7 6 C4.125 6.1875 4.125 6.1875 1 6 C0.34 5.01 -0.32 4.02 -1 3 C-0.67 2.01 -0.34 1.02 0 0 Z " fill="#000000" transform="translate(298,171)"/>
</svg>
